<svg version="1.2" xmlns="http://www.w3.org/2000/svg" viewBox="0 0 615 522" width="615" height="522">
	<title>papergirl (2)</title>
	<style>
		.s0 { fill: #101011 } 
		.s1 { fill: #161616 } 
		.s2 { fill: #141414 } 
		.s3 { fill: #0d0d0d } 
		.s4 { fill: #020202 } 
		.s5 { fill: #0c0c0c } 
		.s6 { fill: #0a0a0a } 
		.s7 { fill: #f6f7f9 } 
		.s8 { fill: #010101 } 
		.s9 { fill: #0f0f0f } 
		.s10 { fill: #f5f6f8 } 
		.s11 { fill: #f2f3f4 } 
		.s12 { fill: #f3f4f6 } 
		.s13 { fill: #f1f2f3 } 
		.s14 { fill: #f3f4f5 } 
		.s15 { fill: #2a2a2a } 
		.s16 { fill: #100f0f } 
		.s17 { fill: #f1f2f2 } 
		.s18 { fill: #121212 } 
		.s19 { fill: #f0f1f1 } 
		.s20 { fill: #eaeaeb } 
		.s21 { fill: #efeff0 } 
		.s22 { fill: #101010 } 
		.s23 { fill: #1c1d1d } 
		.s24 { fill: #e1e2e2 } 
		.s25 { fill: #131312 } 
		.s26 { fill: #e1e1e2 } 
		.s27 { fill: #d5d6d6 } 
		.s28 { fill: #e2e3e3 } 
		.s29 { fill: #d1d1d1 } 
		.s30 { fill: #efefef } 
		.s31 { fill: #e8e8ea } 
	</style>
	<path class="s0" d="m385.21 43.65c1.15-0.09 1.74 0.25 2.7 0.86 4.14 2.55 8.45 4.71 12.95 6.56 0.29 0.12 0.29 0.12 0.59 0.24 1.66 0.68 3.31 1.36 5.01 1.93 0.87 0.32 0.87 0.32 1.11 0.83 0.27-0.01 0.27-0.01 0.55-0.02 0.7 0.04 1.18 0.16 1.83 0.41q0.32 0.12 0.64 0.24 0.34 0.12 0.68 0.25c1.91 0.7 3.79 1.28 5.78 1.73q1.2 0.28 2.38 0.66c15.8 4.6 33.11 4.05 49.1 0.8q0.36 0.44 0.74 0.89c-2.01 0.78-4.01 1.18-6.13 1.53q-0.53 0.09-1.07 0.18c-12.24 1.96-25.11 1.84-37.21-0.86q-0.88-0.19-1.77-0.37c-2.81-0.57-5.57-1.27-8.32-2.06q-0.27-0.08-0.55-0.16c-2.78-0.8-5.5-1.75-8.23-2.7-0.5-0.18-0.5-0.18-1.01-0.36q-2.8-0.98-5.52-2.19-0.5-0.21-1.01-0.43c-11.78-5.16-11.78-5.16-13.37-7.59q0.06-0.18 0.13-0.37z"/>
	<path class="s1" d="m428.73 80.24c1.24-0.3 2.34-0.09 3.58 0.1 8.36 1.16 16.88 1.08 25.18-0.55q0.31-0.06 0.64-0.12c3.95-0.83 7.61-2.39 11.23-4.13 0.33-0.15 0.33-0.15 0.65-0.31 5.6-2.69 10.98-6.03 14.84-11.01 0.37-0.39 0.37-0.39 1.38-0.88 0.17 0.49 0.17 0.49 0.23 1.13-1.12 1.77-2.95 3.24-4.48 4.66-0.24 0.23-0.24 0.23-0.49 0.46-3.13 2.85-6.73 4.96-10.56 6.74q-0.94 0.44-1.88 0.89c-3.69 1.76-7.44 3.18-11.46 3.96q-0.43 0.09-0.87 0.17c-7.96 1.49-16.12 1.45-24.13 0.46q-0.29-0.03-0.6-0.06c-2.07-0.24-2.07-0.24-2.77-0.5q-0.24-0.49-0.49-1.01z"/>
	<path class="s2" d="m486.23 63.34c0.17 0.49 0.17 0.49 0.23 1.13-4.13 6.52-12.09 10.27-18.82 13.33q-0.3-0.32-0.61-0.64c0.29-0.16 0.29-0.16 0.58-0.32 9.53-5.14 9.53-5.14 17.24-12.62 0.37-0.39 0.37-0.39 1.38-0.88z"/>
	<path class="s3" d="m475.01 73.04q0.11 0.56 0.22 1.13c-2.5 1.2-5.01 2.39-7.59 3.63q-0.3-0.32-0.61-0.64c5.3-2.9 5.3-2.9 7.98-4.12z"/>
	<path class="s4" d="m467.03 77.16q1.99-0.95 4.05-1.93 0.05 0.43 0.1 0.87-1.74 0.84-3.54 1.7-0.3-0.32-0.61-0.64z"/>
	<path class="s5" d="m466.39 58.86q1.05-0.35 2.14-0.72 0.36 0.44 0.74 0.89c-0.89 0.35-0.89 0.35-1.9 0.6-0.61-0.35-0.61-0.35-0.98-0.77z"/>
	<path class="s6" d="m257.4 33.75c3.28 3.47 4.76 6.9 5 11.7-0.21 5.45-2.45 10.14-6.26 14.03-0.81 0.69-0.81 0.69-1.64 1.4 0.96 2.64 2.08 4.74 3.75 6.99 0.67 0.89 0.67 0.89 1.34 1.81 0.7 0.93 0.7 0.93 1.41 1.87q0.67 0.9 1.36 1.83c5.3 7.29 5.3 7.29 11.16 14.12 1.66 2.59 1.71 4.87 1.17 7.82-0.98 2.81-1.92 5.33-4.53 6.92-1.65 1.21-1.65 1.21-1.74 3.25q0.05 1.15 0.1 2.33 0.04 1.27 0.08 2.58 0.05 1.35 0.11 2.74c0.25 12.93-2.11 24.05-11.13 33.9-2.59 2.32-5.53 4.09-8.46 5.97-5.13 3.52-8.09 8.11-9.57 14.16-0.52 3.98-0.65 7.98-0.75 11.98 11.39-6.47 21.21-14.12 30.66-23.21q0.66-0.63 1.34-1.28c6.28-6.03 11.93-12.24 17.16-19.19 1.52-1.99 3.09-3.93 4.68-5.86q0.78-0.96 1.58-1.95c1.41-1.66 1.41-1.66 2.61-2.67 1.63-1.93 2.03-4.11 2.72-6.52 2.58-8.27 7.67-16.05 15.24-20.59 9.18-4.67 17.4-4.06 27.1-1.35q0.97 0.26 1.96 0.54c5.37 1.6 10.65 3.95 13.84 8.72 0.09 1.88 0.09 1.88 0 3.75-0.22 2.37-0.22 2.37 1.49 4.39 1.53 2.39 2.09 3.34 1.5 6.09-1.31 1.35-1.31 1.35-2.99 2.24q-1.48 0-2.99 0 0.04 1.2 0.09 2.43c-0.13 3.91-0.13 3.91-1.59 5.81-1.59 0.56-1.59 0.56-2.99 0.74q-0.12 1.22-0.23 2.48c-0.52 2.76-0.52 2.76-1.36 4.21-2.36 1.34-3.99 1.21-6.64 0.8-1.46-1.5-2.56-2.8-3.73-4.49-2.08-2.78-2.08-2.78-5.19-4.02-4.49 0.11-8.24 2.1-11.74 4.81-2.65 3.3-3.05 6.61-3.7 10.72-3.64 22.33-20.75 42.66-35.45 58.85q-1.97 2.19-3.89 4.42-1.44 1.68-2.93 3.32c-13.33 15.33-17.19 34.45-20.8 53.87-2.3 12.31-5.01 24.56-8.55 36.58q-0.27 1-0.55 2.02c-2.15 6.93-7.28 10.26-13.24 13.89-1.23 0.76-1.23 0.76-2.49 1.54-2.14 1.13-2.14 1.13-4.38 1.13q-0.26 1.12-0.52 2.28c-1.34 5.81-2.75 11.6-4.29 17.36q-2.42 9.14-4.55 18.34-1.2 5.09-2.47 10.16c-4.02 16.23-7.41 32.58-10.69 48.98q-0.17 0.85-0.35 1.72c-3.12 15.62-6.1 31.24-8.5 46.99-0.85 5.47-1.77 10.66-3.77 15.84-2.47 0.5-4.94 0.99-7.48 1.5 0.33 3.78 0.33 3.78 2.81 5.33 4 2.04 8.44 2.75 12.8 3.65 5.84 1.21 11.21 2.52 16.54 5.24-0.09 1.69-0.09 1.69-0.74 3.75-7.74 6.08-19.05 6.51-28.56 7.25q-1.64 0.13-3.28 0.27-4.64 0.38-9.29 0.71c-1.11 0.08-1.11 0.08-2.25 0.17-8.4 0.59-16.82 0.66-25.25 0.71q-1.74 0.01-3.49 0.02-2.45 0.02-4.9 0.02-1.43 0-2.89 0.01c-2.34-0.18-2.34-0.18-4.59-1.68 0.05-1.73 0.05-1.73 0.75-3.74 4.34-2.61 9.26-3.05 14.21-3.74q-1.43-0.33-2.9-0.67c-13.34-3.18-13.34-3.18-17.29-7.57q-0.62-0.6-1.26-1.21c-3.13-5.68 0.08-13.16 1.68-18.9 2.37-8.74 4.38-17.51 6.12-26.39q0.15-0.77 0.31-1.57 0.76-3.87 1.49-7.75 0.67-3.5 1.36-7c1.91-9.66 3.38-19.34 4.69-29.1q0.31-2.22 0.61-4.44 0.73-5.34 1.45-10.68c-3.83 5.21-7.53 10.47-11.08 15.86q-6.11 9.25-12.42 18.37-2.07 3-4.13 6.01-1.58 2.29-3.17 4.58-0.73 1.06-1.48 2.16c-3.26 4.71-6.72 9.21-10.34 13.65q-0.78 0.99-1.58 2.01c-3.63 4.48-8.19 7.34-13.94 7.94-5.35 0.26-8.85-0.37-12.89-3.96-3.26-3.13-5.18-6.24-6.73-10.48-7.75 7.04-11.43 20.06-12.14 30.22-0.52 11.62-0.52 11.62 1.67 22.93 0.15 1.98 0.15 1.98 0.09 3.69q-0.02 0.87-0.04 1.75-0.02 0.64-0.05 1.29c-13.6 3.02-28.02 2.38-41.87 2.25-0.42-1.45-0.42-1.45-0.75-2.99 1.45-1.46 4.19-0.93 6.18-0.96q0.83-0.02 1.68-0.05 2.68-0.06 5.37-0.12c8.07-0.18 16.1-0.45 24.16-1.12-0.94-1.09-0.94-1.09-1.89-2.2-12.01-14.21-21.15-30.53-20.82-49.64 1.09-11.02 9.05-20.1 16.41-27.81 1.48-1.59 2.8-3.16 4.05-4.93q-0.69-0.32-1.4-0.66c-1.59-0.84-1.59-0.84-3.08-2.34-0.29-1.77-0.29-1.77 0-3.74 1.24-1.47 1.24-1.47 3.03-3.04 5.51-5.24 9.81-11.37 14.27-17.51q1.92-2.62 3.85-5.24c5.2-7.08 10.1-14.33 14.94-21.66 2.61-3.95 5.25-7.85 8.02-11.68 3.34-4.61 6.49-9.34 9.63-14.08 3.51-5.31 7.05-10.59 10.75-15.77 3.37-4.74 6.63-9.54 9.84-14.4q4.82-7.25 9.75-14.41 3.99-5.82 7.88-11.7c-2.5-4.21-2.5-4.21-5.98-7.49-2.57 0.48-2.57 0.48-4.32 1.05-3.66 0.99-7.11 1.15-10.46-0.69q-0.82-0.54-1.67-1.1-0.66 0.91-1.34 1.85-0.89 1.23-1.79 2.45-0.43 0.6-0.88 1.22c-2.35 3.2-4.63 5.96-8.56 7.01q-0.8 0.1-1.63 0.19-0.26 0.92-0.52 1.87c-2.14 5.72-5.48 10.52-10.7 13.85-2.62 0.33-2.62 0.33-4.49 0-0.88-1.77-0.82-2.85-0.79-4.82q0.01-0.87 0.02-1.77 0.01-0.81 0.03-1.64 0-1.11 0-2.25-0.61 0.39-1.23 0.79-0.8 0.51-1.62 1.03-0.79 0.51-1.61 1.03c-3.01 1.76-5.57 1.83-9 1.64-1.5-1.5-1.5-1.5-1.64-4.12 0.14-2.62 0.14-2.62 0.89-4.11q-1.14 0.05-2.32 0.1-1.53 0.04-3.05 0.08-0.76 0.04-1.53 0.08c-2.81 0.06-4.19-0.18-6.55-1.77q-0.74-0.73-1.5-1.49c0.14-3.09 0.51-4.25 2.71-6.5 2.41-1.82 4.94-2.91 7.75-3.98-0.74-1.11-0.74-1.11-1.49-2.24-0.42-2.15-0.42-2.15 0-4.49 4.57-4.33 9.8-4.96 15.84-6.04 6.29-1.16 12.3-2.44 18.33-4.61 1.72-0.58 1.72-0.58 3.21-0.58q-0.4-0.69-0.81-1.4c-2.31-4.22-4.17-7.98-2.92-12.82 2.45-4.67 6.46-6.51 11.21-8.24 3.72-1.1 7.45-2.09 11.2-3.08 9.78-2.58 19.27-5.29 28.42-9.67q2.35-1.11 4.73-2.16c14.97-6.61 14.97-6.61 27.06-17.29 2.59-3.08 5.42-5.89 8.27-8.73q0.79-0.8 1.61-1.62c3.43-3.43 6.99-6.69 10.68-9.84 1.05-0.91 1.05-0.91 2.12-1.83q0.94-0.78 1.9-1.59c0.93-0.79 0.93-0.79 1.89-1.59 3.1-2.31 6.48-4.23 9.79-6.22-0.74-6.67-1.48-13.34-2.24-20.21q-2.16 2.24-4.39 4.54c-9.27 9.36-19.74 15.71-33.18 15.96-6.91-0.02-12.8-0.56-19.26-3.28q-0.98-0.39-1.99-0.8c-5.14-2.29-9-5.73-12.96-9.68q-0.63-0.61-1.28-1.23c-9.39-9.85-11.73-23.71-11.53-36.72 0.38-14.6 10.38-27.62 20.52-37.39 10.89-9.51 22.63-15.26 37.15-14.48q2.25 0.33 4.49 0.74 0.66-0.89 1.34-1.81c11.23-14.96 25.32-29.43 44.29-33.81 9.04-1.23 16.63-0.83 24.56 4z"/>
	<path class="s7" d="m146.83 264.48c15.88 3.4 30.63 15.25 43.92 24.01 16.78 11.13 16.78 11.13 35.34 18.65-1.2 5.69-2.69 11.29-4.21 16.9-3.23 12.01-6.27 24.07-9.25 36.15q-0.19 0.79-0.39 1.59c-3.99 16.18-7.66 32.39-10.74 48.77-0.82 4.37-1.76 8.7-2.75 13.03-3.78 16.91-6.61 34.11-9.18 51.23q-0.16 1.04-0.32 2.1-0.13 0.89-0.27 1.8c-0.28 1.34-0.28 1.34-1.02 2.09q-2.12 0.35-4.24 0.6-1.36 0.17-2.76 0.34-1.51 0.18-3.02 0.36-1.55 0.19-3.11 0.39-4.12 0.5-8.24 1.01-7.29 0.88-14.59 1.78-0.77 0.1-1.57 0.2-12.67 1.55-25.28 3.55c0.36-4.3 0.84-8.4 1.94-12.58q0.36-1.39 0.73-2.82c0.19-0.73 0.19-0.73 0.39-1.47 7.21-27.5 12.56-55.59 15.72-83.86 0.67-5.84 2.19-8.94 6.5-13.09q0.58-0.57 1.18-1.17c1.81-1.77 3.6-3.39 5.6-4.95 0.79-0.65 0.79-0.65 1.58-1.32q0-0.73 0-1.49c-3.17 0.37-5.02 2.33-7.24 4.44q-0.59 0.56-1.2 1.13c-10.42 9.91-18.01 21.74-25.91 33.66-3.5 5.27-7.08 10.49-10.66 15.7q-2.17 3.16-4.33 6.34c-16.45 24.06-16.45 24.06-25.43 27.05-3.63 0.38-6.58 0.43-9.9-1.17-5.66-5.01-8.27-9.64-9.77-17.03-2.46-11.06-9.98-17.79-19.21-23.72q-0.73-0.36-1.49-0.74c1-2.25 2.07-3.7 3.87-5.37 3.12-3.03 5.66-6.38 8.23-9.89q0.73-0.98 1.48-1.99 6.22-8.44 12.19-17.05 1.8-2.56 3.61-5.12 8.05-11.42 15.72-23.1c2.84-4.3 5.79-8.5 8.84-12.66 1.93-2.67 3.74-5.39 5.55-8.14q5.68-8.58 11.49-17.07 4.04-5.91 8.04-11.83c6.29-9.31 12.62-18.59 19.09-27.77q2.59-3.7 5.07-7.47z"/>
	<path class="s7" d="m302.08 126c5.46 1.63 10.21 4.47 13.73 8.99 1.75 20.14-14.47 42.63-26.67 57.22-2.74 3.21-5.6 6.3-8.47 9.39q-2.02 2.28-4.01 4.59-1.21 1.39-2.47 2.73c-3.28 3.56-5.86 7.41-8.39 11.52-1.39 2.25-2.68 3.98-4.57 5.86-0.49-8.39-0.99-16.79-1.49-25.44q-0.74 0-1.5 0 0.01 0.61 0.03 1.24 0.12 6.5 0.18 13 0.02 2.42 0.07 4.83c0.2 10.2-0.57 19.02-3.57 28.77-1.18 4.07-1.8 8.29-2.55 12.46q-2.28 12.22-5.08 24.34-0.38 1.65-0.76 3.3c-1.39 6.06-2.95 11.9-5.52 17.6-20.91 0.2-37.28-12.06-53.95-23.33-17.14-11.57-37.64-24.91-58.95-26.08 1.01-2.21 2.16-3.89 3.78-5.7q0.7-0.78 1.41-1.58 0.76-0.84 1.54-1.7c0.79-0.88 0.79-0.88 1.6-1.79q1.7-1.89 3.4-3.78 1.67-1.85 3.34-3.71c6.55-7.32 13.23-14.51 19.93-21.69 0.68-0.73 0.68-0.73 1.38-1.48q3.24-3.48 6.62-6.83c1.79-1.77 3.47-3.6 5.11-5.51 3.1-3.59 6.43-6.93 9.79-10.27q0.9-0.91 1.83-1.84c3.64-3.64 7.38-7.13 11.3-10.46q0.95-0.82 1.93-1.67c8.62-7.12 16.03-10.44 27.23-9.56 2.52 0.75 4.42 1.69 6.73 2.99 0.25 2.97 0.49 5.93 0.75 8.98 5.7 1.14 9.56-2.2 14.21-5.24 3.09-2.13 6.04-4.38 8.97-6.73q1.09-0.87 2.22-1.76c11.22-9.18 21.26-19.56 29.93-31.18q1.85-2.33 3.74-4.63 0.78-0.96 1.59-1.95c3.3-3.9 3.3-3.9 5.61-3.9z"/>
	<path class="s8" d="m257.4 33.75c3.28 3.47 4.76 6.9 5 11.7-0.21 5.45-2.45 10.14-6.26 14.03q-0.81 0.69-1.64 1.4c0.96 2.64 2.08 4.74 3.75 6.99q0.66 0.89 1.34 1.81 0.7 0.92 1.41 1.87 0.67 0.9 1.36 1.83c5.3 7.29 5.3 7.29 11.16 14.12 1.66 2.59 1.71 4.87 1.17 7.82-0.99 2.83-1.91 5.36-4.59 6.9-1.7 1.33-1.7 1.33-1.6 4.12q0.06 1.62 0.16 3.24c0.12 2.02 0.13 3.92 0.05 5.94q-1.11 0.74-2.24 1.5-0.38-2.69-0.75-5.38c-0.11-0.75-0.11-0.75-0.22-1.53-0.81-5.97-0.81-5.97-0.53-8.06 1.42-1.83 3.01-3.34 4.67-4.95 1.48-1.72 1.48-1.72 1.66-4.02-0.41-2.68-1.23-3.85-2.97-5.9-0.72-0.88-0.72-0.88-1.47-1.78q-0.56-0.64-1.14-1.31 0.09 1.29 0.18 2.62c0 4.56-1.87 7.77-4.72 11.22-3.42 1.75-6.66 1.77-10.42 1.13-2.08-1.03-2.92-1.93-4.48-3.74-0.49-1.63-0.49-1.63-0.75-3-7.08 1.17-14.05 2.39-20.94 4.49q0.09 0.79 0.19 1.61c0.77 13.08-4.49 26.13-9 38.21-1.64 4.58-2.23 8.62-2.2 13.51-0.2 2.06-0.2 2.06-2.45 5.06-0.49-2.47-0.98-4.94-1.49-7.49q-0.92 0.96-1.86 1.95c-10.07 10.37-20.73 18.27-35.71 18.55-6.91-0.02-12.8-0.56-19.26-3.28q-0.98-0.39-1.99-0.8c-5.14-2.29-9-5.73-12.96-9.68-0.64-0.61-0.64-0.61-1.28-1.23-9.39-9.85-11.73-23.71-11.53-36.72 0.38-14.6 10.38-27.62 20.52-37.39 10.89-9.51 22.63-15.26 37.15-14.48q2.25 0.33 4.49 0.74 0.66-0.89 1.34-1.81c11.23-14.96 25.32-29.43 44.29-33.81 9.04-1.23 16.63-0.83 24.56 4z"/>
	<path class="s7" d="m264.97 83.34c6.6 6.42 6.6 6.42 6.99 9.66-0.32 2.88-1.1 3.48-3.23 5.36-2.66 2.79-3.45 4.51-3.54 8.37q0.08 2.53 0.25 5.05c0.51 10.99-0.9 22-8.15 30.87-2.44 2.49-5.19 4.53-8.02 6.56-7.58 5.46-11.49 11.02-13.46 20.21q-1.24-0.53-2.52-1.08c-5.65-1.93-11.77-1.73-17.67-1.92-4.29-15.28-1.88-28.03 3.64-42.6 3.23-8.81 5.17-17.62 5.33-27.01 14.07-5.42 14.07-5.42 20.94-4.49 1.73 2.15 1.73 2.15 2.99 4.49 3.34 2.23 6.55 1.95 10.47 1.5 2.76-1.44 3.56-2.68 5.09-5.38 1.04-3.33 1.1-6.14 0.89-9.59z"/>
	<path class="s9" d="m581.25 9.98c0.39 2.36 0.55 3.71 0 5.99-1.94 2.59-4.29 4.63-6.73 6.74q-0.69 0.63-1.41 1.27-2.26 2.01-4.57 3.97-2.57 2.2-5.14 4.4-0.68 0.58-1.38 1.18-3.96 3.39-7.83 6.91c-3.28 2.99-6.68 5.8-10.14 8.58-1.69 1.35-1.69 1.35-3.17 2.88-3.55 0.39-5.97-0.24-9.33-1.38-5.68-1.46-9.23 0.43-14.23 3.11q-2.34 1.2-4.69 2.38-1.02 0.54-2.06 1.09c-1.85 0.79-1.85 0.79-4.84 0.79-1.39-3.2-2.4-5.72-2.26-9.23 0.11-3.61 0.19-6.95-1.48-10.23-3.82-3.56-8.74-5.62-13.52-7.61-1.43-0.63-1.43-0.63-2.18-1.37q-0.04-1.88 0-3.75c5.43-1.95 10.85-3.23 16.5-4.35q1.42-0.28 2.89-0.57c11.52-2.26 23.14-3.91 34.75-5.59q9.73-1.39 19.43-3.01 1.16-0.2 2.36-0.4 2.36-0.39 4.73-0.8c4.82-0.8 9.42-1.18 14.3-1z"/>
	<path class="s7" d="m160.29 214.33c0.74 0.37 0.74 0.37 1.5 0.75-1.05 1.03-1.05 1.03-2.11 2.08q-2.87 2.85-5.72 5.71c-0.67 0.66-0.67 0.66-1.34 1.34-1.77 1.83-3.44 3.73-5.08 5.66-1.65 1.9-3.37 3.73-5.09 5.56-12.84 12.04-12.84 12.04-20.67 26.94 0.41 2.31 1.04 4.41 1.87 6.6-3.1 1.18-5.66 1.99-8.97 1.5-7.21-6.6-17.4-17.47-19.16-27.32 0.56-3.16 1.28-4.17 3.8-6.07 5.81-3.2 12.67-4.49 19.05-6.11 12.66-3.23 24.18-7.91 35.86-13.78q1.15-0.57 2.32-1.15 1.03-0.52 2.08-1.06 0.82-0.32 1.66-0.65z"/>
	<path class="s10" d="m350.96 103.55c1.91 1.59 1.91 1.59 2.99 2.99q0 0.74 0 1.5c-4.49-0.75-4.49-0.75-6.59-1.17-3.05-0.42-6.04-0.39-9.11-0.33q0 0.74 0 1.5 1.02 0.1 2.08 0.2c6.69 0.76 12.12 1.96 16.61 7.28-0.24 2.02-0.24 2.02-0.75 3.75-4.72 0.37-4.72 0.37-7.2-1.41q-0.87-0.78-1.77-1.59c-2.23-1.06-3.5-1.49-5.98-1.49-0.37 1.11-0.37 1.11-0.75 2.24q0.66 0.17 1.34 0.34c4.41 1.25 6.68 2.45 9.13 6.4 0.23 2.15 0.23 2.15 0 3.74-3.61-1.56-6.34-4.22-9.31-6.74-1.84-1.61-1.84-1.61-4.15-2.24 1 3.16 2.17 4.54 4.86 6.45 2.16 1.56 3.36 2.52 4.86 4.78-0.28 2.76-0.28 2.76-0.75 5.24-1.48 0.37-1.48 0.37-2.99 0.74q-0.41-0.6-0.82-1.23c-2.35-3.33-4.14-5.71-8.15-7-5.3-0.69-8.3 0.92-12.71 3.74q-1.13 0.67-2.29 1.36-0.72 0.44-1.45 0.89c-0.45-0.5-0.45-0.5-0.91-1.02-4.23-4.5-8.97-7.39-14.79-9.46 0.53-8.28 5.24-14.73 11.21-20.21 11.24-8.24 25.69-6.02 37.39 0.75z"/>
	<path class="s7" d="m99.09 256.79c2.1 1.45 3.44 3.28 4.98 5.3 0.91 1.17 0.91 1.17 1.84 2.36 1.29 2.27 1.29 2.27 1.26 4.2-2.06 5.23-5.48 9.63-10.44 12.3-1.82-0.85-1.82-0.85-3.73-2.25-0.95-3.5-0.62-6.46-0.05-10.01q0.22-1.39 0.44-2.83c0.18-1.05 0.18-1.05 0.35-2.13q-1.1 0.37-2.24 0.75c-1.04 4.54-1.96 8.81-1.49 13.47q1.46 2.27 2.99 4.49c0.1 4.14-3.08 8.1-5.68 11.12-1.05 1.08-2.17 2.1-3.3 3.1q-0.73 0-1.49 0c0.32-5.12 1.43-8.9 3.74-13.47q0.64-1.31 1.31-2.67c0.46-0.9 0.46-0.9 0.93-1.82-3.38 1.06-5.02 2.73-7.48 5.24-7.94 6.74-7.94 6.74-13.46 6.74 0.24-3.99 2.39-6.41 5.24-8.99 1.96-1.28 3.94-2.43 6-3.54q0.72-0.47 1.47-0.95 0-0.73 0-1.49c-2.67 0.42-4.54 1.09-6.82 2.52-5.89 3.38-11.85 4.64-18.6 4.21q-0.73-0.37-1.49-0.75c1.1-3.1 3.19-4.47 5.98-5.98 2.75-1.18 5.55-2.19 8.36-3.18q1.12-0.41 2.26-0.83c5.52-1.98 5.52-1.98 8.07-1.98-0.37-1.11-0.37-1.11-0.75-2.25q-0.99 0.19-2.01 0.38c-4.28 0.63-8.62 0.43-12.94 0.37 0.75-2.24 0.75-2.24 2.77-3.37 5.17-2.03 10.81-2.79 16.24-3.86 5.04-1.03 9.68-2.26 14.42-4.32 1.71-0.42 1.71-0.42 3.32 0.12z"/>
	<path class="s7" d="m247.02 58.64q0.74 0 1.5 0c1.3 1.77 2.51 3.54 3.69 5.38 0.5 0.75 0.5 0.75 1.01 1.53q2.6 3.97 5.02 8.06-0.74-0.07-1.5-0.13c-4.38-0.26-4.38-0.26-8.17 1.72-3.36 4.69-4.21 8.46-4.54 14.13q-1.21 0.21-2.46 0.44-1.62 0.29-3.24 0.59-0.79 0.14-1.61 0.28c-2.45 0.45-4.73 0.96-7.1 1.76-2.04 0.67-2.04 0.67-5.03 0.67q-0.08-1.18-0.17-2.4c-0.74-8.83-2.75-16.95-5.42-25.39-0.39-1.4-0.39-1.4-0.39-2.9q1.28 0.18 2.61 0.36c8.99 1.11 16.92 1.21 25.06-3.35q0.37-0.37 0.74-0.75z"/>
	<path class="s11" d="m569.29 14.48c-2.43 1.99-4.93 3.23-7.79 4.51q-0.69 0.31-1.4 0.63-1.46 0.65-2.92 1.3-2.21 0.99-4.41 1.99c-4.89 2.19-9.76 4.22-14.89 5.79q-0.45-0.74-0.92-1.5c-1.15-1.63-1.15-1.63-2.78-1.73-7.95 1.08-15.78 3.19-23.21 6.22q0 0.74 0 1.5c4.01-0.47 7.65-1.41 11.49-2.62 4.42-1.35 8.55-2.37 13.18-2.62-0.77 2.13-1.33 2.9-3.31 4.07q-1.11 0.47-2.26 0.96-1.22 0.53-2.48 1.08-1.28 0.54-2.6 1.09-1.27 0.55-2.57 1.11c-3.78 1.63-7.53 3.15-11.45 4.41q-0.14 0.75-0.28 1.51c-0.64 3.38-1.25 6.58-2.71 9.72q-0.74-0.74-1.5-1.5 0.17-2.25 0.36-4.5c0.19-3.2 0.22-6-1.11-8.97-4.11-3.96-9.71-6.15-14.95-8.23q0-0.74 0-1.5c13.58-3.08 27.23-5.48 40.98-7.67 1.21-0.2 1.21-0.2 2.44-0.39 8.46-1.35 16.9-2.64 25.41-3.61 7.9-1.09 7.9-1.09 9.68-1.05z"/>
	<path class="s12" d="m577.51 13.73c0.37 0.74 0.37 0.74 0.75 1.49q-5.52 4.87-11.12 9.64-4.67 3.97-9.21 8.09c-3.18 2.9-6.47 5.62-9.83 8.31-2.48 2.07-4.77 4.33-7.03 6.65-2.56 1.51-4.05 0.94-6.92 0.25-2.59-0.78-5.13-1.66-7.67-2.57-1-0.36-1-0.36-2.03-0.71-2.75-0.98-5.06-1.83-7.5-3.46 3.95-2.01 7.91-3.88 11.99-5.61q1.72-0.75 3.44-1.49 0.89-0.38 1.8-0.77c21.92-9.37 21.92-9.37 43.33-19.82z"/>
	<path class="s13" d="m257.49 76.6c1.69 1.64 1.69 1.64 2.99 3.74 0.67 1.02 0.67 1.02 1.36 2.06 1.19 3.26 1.06 5.84 0.14 9.17-1.36 2.11-2.25 3.37-4.49 4.49-3.05 0.29-4.7 0.33-7.33-1.31-2.49-2.56-3.37-4.66-3.46-8.23 0.06-4.06 1.43-6.86 4.06-9.92 2.41-1.2 4.17-0.62 6.73 0z"/>
	<path class="s14" d="m143.84 262.98c-1.14 3.32-2.94 6.01-4.95 8.84q-0.47 0.67-0.96 1.36-1.15 1.64-2.31 3.27c-2.35-2.32-4.65-4.66-6.87-7.11q-0.76-0.81-1.53-1.66c-1.38-1.78-2.18-3.29-2.82-5.45q0.37-0.73 0.75-1.49c6.32-1.79 12.74-0.04 18.69 2.24z"/>
	<path class="s15" d="m46.64 501.01q-0.74 0.51-1.5 1.03-0.73 0.6-1.49 1.21 0 0.74 0 1.5c-10.98 0.57-21.91 0.85-32.9 0.75-0.42-1.45-0.42-1.45-0.75-2.99 1.46-1.46 4.21-0.94 6.2-0.99q0.83-0.02 1.69-0.05 1.78-0.05 3.56-0.09 2.67-0.07 5.35-0.14c6.61-0.18 13.22-0.28 19.84-0.23z"/>
	<path class="s16" d="m536.39 25.7c0.98 1.55 0.98 1.55 1.49 3q-1.1 0.37-2.24 0.75 0-0.74 0-1.5-3.53 0.86-7.05 1.73-0.99 0.24-2 0.48c-3.81 0.95-7.52 2.03-11.21 3.38-1.9 0.53-3.32 0.3-5.16-0.35q0.37-1.11 0.75-2.25c2.09-0.88 4.1-1.61 6.26-2.29q0.91-0.29 1.85-0.59c12.2-3.84 12.2-3.84 17.31-2.36z"/>
	<path class="s17" d="m140.85 489.78c-0.25 2.47-0.49 4.94-0.75 7.49-5.05-0.24-8.81-1.08-12.71-4.5q0-0.73 0-1.49c4.54-0.92 8.82-1.71 13.46-1.5z"/>
	<path class="s18" d="m242.54 127.5c2.24 0.75 2.24 0.75 3.64 2.48 3.04 3.26 7.9 3.92 12.06 5.01q-0.74 1.47-1.49 2.99c-5.92-0.96-10.59-2.59-14.96-6.74q0.37-1.84 0.75-3.74z"/>
	<path class="s5" d="m10 502.51c6.66 0 13.32 0 20.19 0q0.37 0.73 0.75 1.49c-4.22 1.81-8.13 1.67-12.62 1.59q-1.09-0.01-2.21-0.02-2.68-0.02-5.36-0.07-0.37-1.47-0.75-2.99z"/>
	<path class="s19" d="m229.08 308.64q1.59-0.03 3.18-0.05c0.88-0.01 0.88-0.01 1.79-0.02 1.69 0.07 3.13 0.35 4.75 0.82q0 0.74 0 1.5c-1.85 1.22-3.69 2.35-5.61 3.46-0.8 0.47-0.8 0.47-1.62 0.95q-1.99 1.17-3.99 2.32c-0.72-2.53-0.69-3.72 0.33-6.17q0.32-0.79 0.65-1.6 0.26-0.6 0.52-1.21z"/>
	<path class="s20" d="m513.96 44.42c4.44 1.11 4.44 1.11 8.97 2.24q0 0.74 0 1.5-2.57 1.15-5.14 2.29-0.73 0.33-1.47 0.67-1.91 0.82-3.86 1.53-0.73-0.37-1.49-0.75c0.98-2.47 1.97-4.94 2.99-7.48z"/>
	<path class="s21" d="m341.24 117.77c4.05 0.29 6.19 1.52 8.97 4.49 0.65 2.86 0.65 2.86 0.75 5.24-2.39-1.11-4.44-2.44-6.55-4.02q-0.89-0.66-1.81-1.33c-1.36-1.39-1.36-1.39-1.36-4.38z"/>
	<path class="s22" d="m244.03 72.11c1.55 0.33 1.55 0.33 2.99 0.75q-2.61 5.24-5.23 10.48-1.1 0-2.24 0c-0.56-4.46 1.22-7.02 3.74-10.48q0.36-0.37 0.74-0.75z"/>
	<path class="s23" d="m91.5 263.73q1.11 0 2.24 0c0.17 4.07 0.08 7.39-1.49 11.23q-1.11-0.37-2.24-0.75 0 1.84 0 3.74-0.37 0-0.75 0c-0.17-4.66 0.29-8.95 1.49-13.47q0.37-0.37 0.75-0.75z"/>
	<path class="s24" d="m160.29 214.33q0.74 0.37 1.5 0.75c-2.47 2.47-4.94 4.94-7.48 7.48q-0.74-0.74-1.5-1.49 0-1.48 0-3 1.82-0.97 3.65-1.92 1.01-0.53 2.05-1.08c0.88-0.37 0.88-0.37 1.78-0.74z"/>
	<path class="s9" d="m254.5 82.59q1.47 0 2.99 0c0.5 2.47 0.99 4.94 1.5 7.49q-1.47 0.36-2.99 0.74-0.14-1.26-0.28-2.57-0.23-1.31-0.47-2.67-0.74-0.36-1.5-0.74 0.37-1.11 0.75-2.25z"/>
	<path class="s2" d="m338.25 105.79c2.22 0 4.44 0 6.73 0q-0.37 1.11-0.75 2.25 1.1 0.74 2.24 1.5c-2.71-0.25-5.43-0.5-8.22-0.75q0-1.48 0-3z"/>
	<path class="s25" d="m337.5 118.52c2.84 0.4 4.09 1.65 5.98 3.74q-0.74 0-1.5 0-0.36 1.11-0.74 2.25c-1.87-1.31-1.87-1.31-3.74-3q0-1.47 0-2.99z"/>
	<path class="s26" d="m246.28 74.36q0.73 0.73 1.49 1.49c-2.71 5.15-2.71 5.15-5.23 5.99 0.37-3.29 1.56-5.02 3.74-7.48z"/>
	<path class="s4" d="m503.49 39.93q1.1 0.36 2.24 0.74c0.22 4.54 0.22 4.54 0 5.99q-1.1 0.74-2.24 1.5c0-2.72 0-5.44 0-8.23z"/>
	<path class="s27" d="m535.64 27.95c-0.56 1.45-0.56 1.45-1.49 2.99-1.59 0.56-1.59 0.56-2.99 0.75q0-1.1 0-2.24-1.11-0.37-2.25-0.75c2.36-0.53 4.28-0.75 6.73-0.75z"/>
	<path class="s28" d="m140.85 386.49c1.23 2.45 0.39 4.81 0 7.48q-1.11-1.1-2.24-2.24c-0.74 0.37-0.74 0.37-1.5 0.74 0.89-2.52 1.7-4.22 3.74-5.98z"/>
	<path class="s29" d="m145.34 502.51q0 0.36 0 0.74c-3.34 0.37-3.34 0.37-6.73 0.75q0-1.1 0-2.24c2.39-1.2 4.28-0.03 6.73 0.75z"/>
	<path class="s30" d="m261.23 218.82q1.47 1.84 2.99 3.74-1.08 1.89-2.24 3.74-0.37 0-0.75 0c0-2.47 0-4.94 0-7.48z"/>
	<path class="s31" d="m95.24 331.84q0.74 0.74 1.49 1.5c-1.48 2.22-1.48 2.22-2.99 4.49-0.51-1.31-0.51-1.31-0.74-2.99 1.07-1.69 1.07-1.69 2.24-3z"/>
</svg>