<svg version="1.2" xmlns="http://www.w3.org/2000/svg" viewBox="0 0 1024 1024" width="520" height="520">
	<title>bulb-2</title>
	<style>
		.s0 { fill: #030303 } 
		.s1 { fill: #ffdc38 } 
		.s2 { fill: #e9e9e8 } 
		.s3 { fill: #dfe0df } 
		.s4 { fill: #222323 } 
		.s5 { fill: #201f20 } 
		.s6 { fill: #1f1f1f } 
		.s7 { fill: #202020 } 
	</style>
	<g id="Folder 1">
		<path class="s0" d="m906.5 47.9c14.2 6.3 25.4 19 31.8 33 32.7 103.9-85.8 298.4-131.9 387.8-35.5 67.7-82.5 125.4-156.5 151.6-22.4 6-44.4 7.4-67.5 7.4q-2.3 0-4.6 0c-46.3-0.2-86.9-12-128.6-32-19.8-9.4-40.3-17.2-60.8-25q-17.8-6.9-35.6-13.8c-2.4-0.9-4.9-1.8-7.4-2.8-40.8-15.7-81.4-31.9-122-48.1q-5.5-2.2-11-4.4-13.9-5.5-27.8-11.2-5.8-2.3-11.5-4.6c-23.2-9.5-45.8-21.4-56.1-45.5-5-15.8-3.9-27.3 3.1-42.3 9.7-17.7 21.4-30.1 40.6-37.1 23-5.6 47.7-2.1 70.8 1.2 4.2 0.6 4.2 0.6 8.4 1.2q14.2 2 28.4 4.2 2.6 0.4 5.3 0.8c69.4 10.6 138.9 23 206.1 43.7 36.7 10.8 75.2 11.2 109.4-7.2 8.2-5.1 15.1-10.8 22-17.5 1.6-1.6 3.2-3.2 4.8-4.8 13.9-14.6 24.8-31.1 35.9-47.7 5.3-7.8 10.8-15.5 16.3-23.2q1.6-2.3 3.3-4.7 3.3-4.7 6.7-9.4 9.8-13.9 19.6-27.8 8-11.5 16.1-22.9c17.5-24.5 34.3-49.4 51.1-74.4 16.1-24.1 32.6-47.7 49.6-71.1q4.5-6.1 8.9-12.2c21.1-29.5 44.5-51 83.1-41.2z"/>
		<path class="s0" d="m571.1 672c3.3 0 3.3 0 6.6 0 25.9-0.1 50 1.1 75.1 7.6 2.6 0.6 2.6 0.6 5.3 1.3 72.1 18.7 130.1 70.8 174.9 128.4q7.2 8.9 14.4 17.7 13.8 17 27.4 34.1c4.2 5.1 8.5 10.1 12.8 15.1 15.9 18.6 26.5 33.6 25.2 58.8-2.1 17.4-9.5 29.7-22.7 41.3-14.5 10.1-31.2 11.9-48.3 8.8-21.1-8.3-39.7-23.6-58.1-36.6-23.8-16.7-48.1-32.7-72.4-48.7-3.1-2-3.1-2-6.2-4.1-49.4-32.7-49.4-32.7-99.5-64.3q-2.3-1.4-4.7-2.9c-26.3-16.2-49.3-22.1-80.1-22-2.6 0-5.1 0-7.7 0q-8.1 0-16.1 0-12 0-24.1 0c-32.5 0-64.5 1.5-96.9 5-4 0.4-4 0.4-8.1 0.9q-23 2.4-45.9 4.9c-2.4 0.3-2.4 0.3-4.8 0.6q-12 1.3-24 2.6c-137.8 15.6-137.8 15.6-176.5-6.8-10.6-9.2-16.9-17.8-18.4-31.9 1.6-15.1 8.7-22.8 19.5-32.7 16.8-10.8 36.8-12.2 56.2-14.7 2.8-0.4 5.7-0.7 8.6-1.1 11.4-1.5 22.7-3 34.1-4.3 65-7.4 129.9-22.6 193.7-37.1q23.4-5.3 46.9-10.1c2.4-0.5 4.8-1 7.3-1.5 35.5-7 70.5-8.1 106.5-8.3z"/>
		<path class="s1" d="m764.9 244.4c8.5 5.4 16.1 11.1 23.5 18 7.9 7.2 15.9 14.2 24.3 21 3 2.5 3 2.5 6 5 3.3 2.6 6.6 5.1 10 7.5 3.7 2.6 3.7 2.6 8.7 7.8-0.6 12.7-4.9 22.6-10.2 33.8q-1.2 2.6-2.4 5.3-3.9 8.4-7.9 16.8-2.7 5.9-5.4 11.7-7.9 16.8-15.9 33.5-1 2.2-2.1 4.5c-31.9 66.9-70.3 139.7-142.9 169.2-73.7 25.8-137.3 2.3-205.8-25.9-12.5-5.2-25-10.2-37.6-15-2.4-0.9-4.7-1.8-7.1-2.7q-6.7-2.5-13.4-5c-1.9-0.7-3.9-1.5-5.9-2.2q-2.6-1-5.3-2c-3.9-2.2-3.9-2.2-6.1-8.8 0.8-5.5 0.8-5.5 2.4-12.2 0.6-2.4 1.2-4.8 1.8-7.4 0.6-2.5 1.2-5.1 1.8-7.7 0.6-2.5 1.2-4.9 1.8-7.5q1.8-7.4 3.6-14.9 1.8-7.5 3.5-15.1c0.5-2.4 1-4.8 1.6-7.2 0.5-2.2 0.9-4.3 1.4-6.5q0.9-2.5 1.9-5c7.4-2.5 9.6-1.9 17 0.1 2.1 0.6 4.3 1.1 6.4 1.7 3.4 0.9 3.4 0.9 6.9 1.8q7.2 1.8 14.3 3.7c2.5 0.6 4.9 1.2 7.4 1.9 11.2 2.8 22.5 5.4 33.8 8q2.9 0.7 6 1.4c47.7 10.8 92.8 6.3 135.4-18.6 28.5-19 48.2-46.2 67.8-73.8q5.5-7.8 11.2-15.5c14.4-19.8 28.5-39.8 42.2-60.1q8.4-12.1 16.7-24.2 3.1-4.5 6.1-9c2.2-3.2 2.2-3.2 4.5-6.4z"/>
		<path class="s0" d="m252.4 255.8c32.4 11.6 63.6 30.8 81.9 60.9 3.3 7.2 3.6 12.3 2.1 20-2.9 6.5-2.9 6.5-8.8 11-20.7 3.3-43.4-2.5-63.9-5.6-68.9-10.3-133.7-11.2-201.2 8.7-8.2 2.1-14.2 2.5-22.7 1.3-8.2-5.7-10.6-8.9-12.5-18.7 1.6-8.3 3.7-10.9 10.3-16.1 9-5.3 19-7.1 29.1-9.4 2.1-0.6 4.3-1.1 6.5-1.6 7.1-1.7 14.3-3.3 21.5-4.8 2.2-0.4 2.2-0.4 4.4-0.9 24.5-4.9 48.1-6.6 73-6.4q8.2 0.1 16.5 0c21.8 0.1 42.8 1.6 64.3 5.1-21-7.1-40.9-12.5-63-15-8-1-12.8-1.8-19.4-6.5-4.7-6.9-4.6-11.8-4.2-19.9 0.9-4.7 0.9-4.7 5.3-10.4 22.1-10.5 58.6 1.4 80.8 8.3z"/>
		<path class="s0" d="m970.2 227.9c9.4 1.3 12.9 2.4 18.8 9.9 2.6 16.5-2 31.4-7.4 46.8-0.8 2.3-1.6 4.6-2.4 7-16.7 47.1-40.2 92.9-75.9 128.6 20.6-15.2 36.7-31.1 51.3-52.2 3.6-4.9 3.6-4.9 8-7.1 8.1-0.9 12.2-0.6 19.4 3.4 6.6 7.4 7.5 10.9 7 20.8-14.6 34.7-51.3 66.4-85.4 80.8-20.5 8-42 13.2-64 9.3-6.9-4.1-10.3-6.4-12.5-14.2 0.3-15.8 2.7-28.1 12.5-40.8 8-7.5 16.4-14.4 25-21.2 44.6-36.5 70.4-95.1 85.2-149.6 3.5-12.2 7.3-19.6 20.4-21.5z"/>
		<path class="s1" d="m192.9 397.7c29.8 0.3 59.6 4.7 88.6 11.5-3 15.5-6.2 31-9.8 46.3-0.6 3.2-0.6 3.2-1.3 6.4-0.7 2.9-0.7 2.9-1.4 5.9q-0.6 2.7-1.2 5.4c-0.8 2.1-0.8 2.1-1.7 4.2-7.4 2.5-8.4 2-15.4-0.8q-2.6-1.1-5.3-2.2-2.8-1.2-5.8-2.4c-1.9-0.8-3.9-1.6-5.9-2.4q-6.2-2.6-12.4-5.2-9.5-4-19-7.8-6.1-2.5-12.1-5.1-2.8-1.1-5.7-2.3c-11.1-4.7-19.6-9.6-28.2-18-2.3-6.8-1.8-12.8 0-19.8 5.3-6.6 5.3-6.6 10.9-11 5.1-5 18.6-2.7 25.7-2.7z"/>
		<path class="s1" d="m888.5 83.2c8.2 4 10.8 7.9 14.8 16.1 1.3 14.5-2.6 27.6-6.2 41.5-0.8 3.4-0.8 3.4-1.7 6.9-3.4 13.4-7.3 26.5-11.9 39.5-7.6-3.6-13-7.8-19.2-13.6-8.5-7.8-17.1-15.2-26-22.4-3.1-3.5-3.1-3.5-3.1-12.3 3.7-6.9 8.5-13.1 13.2-19.4 1.2-1.7 2.4-3.4 3.6-5.2 21.6-29.6 21.6-29.6 36.5-31.1z"/>
		<path class="s1" d="m811 178.4c10.3 6.6 19.4 13.9 28.6 21.9q3.9 3.4 7.8 6.8 1.9 1.6 3.8 3.3c3.7 3.3 3.7 3.3 7.7 6 3.7 2.7 3.7 2.7 9.2 8.2 0.3 10.6-4.6 19.9-8.9 29.4q-0.9 2.1-1.9 4.3-2.2 5.1-4.5 10.3c-7.8-6.7-15.6-13.3-23.2-20.1-13.4-11.7-27-23.3-40.6-34.9q1.6-2.4 3.2-4.9c1.3-2.1 2.7-4.3 4.1-6.5 1.4-2.1 2.7-4.2 4.1-6.4q5.4-8.6 10.6-17.4z"/>
		<path class="s1" d="m318.8 418q6.4 0.5 12.8 1c3.6 0.3 3.6 0.3 7.2 0.5 6.4 0.7 6.4 0.7 13 2.9-1.5 16.9-5.7 32.9-9.9 49.2q-1.1 4.3-2.1 8.6c-5.3 20.7-5.3 20.7-7.8 25.8-11.7-1.2-20.5-5.5-30.7-11 1.4-11.4 3.6-22.4 6.3-33.6q0.6-2.4 1.2-4.9 4.6-19.3 10-38.5z"/>
		<path class="s2" d="m235.4 290.5c7.4 2.7 14.7 5.6 21.9 8.8-7.8 2.7-13.5 1.8-21.5 0.3-16.5-2.8-32.8-3.4-49.5-3.8q-4.4-0.2-8.8-0.3-10.6-0.3-21.2-0.6 0-1 0-2.2 2 0 4.1-0.1 9.2-0.3 18.4-0.7c3.2-0.1 3.2-0.1 6.4-0.2q3.1-0.1 6.2-0.2c2.9-0.1 2.9-0.1 5.8-0.3 27-3.6 27-3.6 38.2-0.7z"/>
		<path class="s3" d="m216.1 287q1.9 0.7 3.9 1.3 0 2.2 0 4.4c-6.1 3.1-11 2.5-17.8 2.5-2.7 0-5.3-0.1-8.1-0.1-2.8 0-5.6 0-8.5 0-2.8 0-5.6 0-8.5 0q-10.4-0.1-20.8-0.2 0-1 0-2.2 2 0 4.1-0.1 9.2-0.3 18.4-0.7c3.2-0.1 3.2-0.1 6.4-0.2q3.1-0.1 6.2-0.2c2.9-0.1 2.9-0.1 5.8-0.3 7.2-0.9 11.7-5.4 18.9-4.2z"/>
		<path class="s4" d="m890.1 374.1c0.7 2.1 1.5 4.3 2.2 6.6-5.8 5.8-11.6 11.6-17.6 17.6-2.1-0.8-4.3-1.5-6.6-2.2 7.3-7.3 14.5-14.6 22-22z"/>
		<path class="s5" d="m786.8 138.9c1.5 2.2 2.9 4.3 4.4 6.6-4.3 6.5-8.7 13-13.1 19.8q-2.2-1.1-4.4-2.2c3.1-9.1 7.7-16.4 13.1-24.2z"/>
		<path class="s6" d="m846.2 413.6q2.1 2.2 4.4 4.4-3.2 4.4-6.4 8.8-1.7 2.5-3.5 5-1.6 1.9-3.3 3.8-2.2 0-4.4 0c2.6-9.7 5.5-15.3 13.2-22z"/>
		<path class="s7" d="m934.1 393.9c2.1 0.7 4.3 1.4 6.5 2.2-5 5-10.1 10.1-15.3 15.3-2.2-0.7-4.4-1.4-6.6-2.2 5.1-5 10.1-10.1 15.4-15.3z"/>
	</g>
</svg>