<svg version="1.2" xmlns="http://www.w3.org/2000/svg" viewBox="0 0 1024 1024" width="520" height="520">
	<title>bulb-2</title>
	<style>
		.s0 { fill: #171717 } 
		.s1 { fill: #151516 } 
		.s2 { fill: #fbfcfa } 
		.s3 { fill: #171718 } 
		.s4 { fill: #161617 } 
		.s5 { fill: #f9faf8 } 
		.s6 { fill: #f8f9f7 } 
		.s7 { fill: #f8f9f8 } 
		.s8 { fill: #e9e9e8 } 
		.s9 { fill: #dfe0df } 
		.s10 { fill: #222323 } 
		.s11 { fill: #201f20 } 
		.s12 { fill: #1f1f1f } 
		.s13 { fill: #202020 } 
		.s14 { fill: #ffdc38 } 
		.s15 { fill: #030303 } 
		.s16 { fill: #040404 } 
	</style>
	<g id="Folder 2">
		<path class="s0" d="m1856.1-473.9c9.2 4.1 16.4 12.3 20.6 21.4 21.2 67.3-55.6 193.4-85.6 251.4-23 43.9-53.5 81.3-101.5 98.3-14.5 3.9-28.7 4.8-43.7 4.8q-1.5 0-3 0c-30.1-0.1-56.4-7.8-83.4-20.8-12.9-6.1-26.1-11.1-39.4-16.2q-11.6-4.4-23.1-8.9-2.4-0.9-4.8-1.8c-26.5-10.2-52.8-20.7-79.1-31.2q-3.6-1.4-7.2-2.8-9-3.6-18.1-7.3-3.7-1.5-7.4-3c-15-6.2-29.7-13.9-36.4-29.5-3.2-10.2-2.5-17.7 2.1-27.4 6.2-11.5 13.8-19.6 26.2-24.1 15-3.6 31-1.3 46 0.8 2.7 0.4 2.7 0.4 5.4 0.8q9.3 1.3 18.5 2.7 1.7 0.2 3.4 0.5c45 6.9 90.1 15 133.6 28.4 23.9 6.9 48.8 7.2 71-4.7 5.3-3.3 9.8-7 14.3-11.4q1.5-1.5 3.1-3.1c9-9.4 16.1-20.1 23.3-30.9 3.4-5.1 7-10.1 10.5-15.1q1.1-1.5 2.2-3 2.1-3.1 4.3-6.1 6.4-9 12.7-18 5.3-7.5 10.5-14.9c11.3-15.9 22.3-32 33.1-48.2 10.4-15.6 21.2-30.9 32.2-46.1q2.9-3.9 5.8-7.9c13.7-19.1 28.8-33.1 53.9-26.7z"/>
		<path class="s1" d="m1638.5-69.2c2.2-0.1 2.2-0.1 4.3-0.1 16.8 0 32.4 0.8 48.7 5 1.7 0.4 1.7 0.4 3.5 0.8 46.7 12.1 84.3 45.9 113.4 83.2q4.7 5.8 9.3 11.5 9 11 17.8 22.1c2.7 3.4 5.5 6.6 8.3 9.8 10.4 12.1 17.2 21.8 16.4 38.1-1.4 11.3-6.2 19.3-14.8 26.9-9.4 6.5-20.2 7.6-31.3 5.7-13.7-5.4-25.7-15.4-37.7-23.8-15.4-10.8-31.2-21.2-46.9-31.6-2-1.3-2-1.3-4.1-2.6-32-21.2-32-21.2-64.5-41.7q-1.5-1-3-1.9c-17.1-10.5-32-14.3-52-14.3q-2.5 0-5 0-5.2 0-10.4 0-7.8 0.1-15.6 0c-21.2 0-41.9 1-62.9 3.3-2.6 0.2-2.6 0.2-5.3 0.5q-14.9 1.6-29.7 3.3c-1.6 0.1-1.6 0.1-3.1 0.3q-7.8 0.9-15.6 1.7c-89.4 10.2-89.4 10.2-114.5-4.4-6.9-5.9-10.9-11.5-11.9-20.7 1-9.7 5.6-14.8 12.6-21.2 10.9-7 23.9-7.9 36.5-9.5q2.7-0.4 5.6-0.8c7.3-0.9 14.7-1.9 22.1-2.7 42.1-4.8 84.2-14.7 125.6-24.1q15.2-3.4 30.4-6.5 2.4-0.5 4.8-1c23-4.5 45.7-5.3 69-5.3z"/>
		<path class="s2" d="m1764.2-346.5c5.5 3.5 10.5 7.2 15.2 11.6 5.2 4.7 10.4 9.3 15.8 13.7 2 1.6 2 1.6 3.9 3.2 2.2 1.7 4.3 3.3 6.5 4.9 2.4 1.7 2.4 1.7 5.6 5-0.3 8.2-3.1 14.7-6.5 22q-0.8 1.6-1.6 3.4-2.5 5.4-5.1 10.9-1.8 3.8-3.6 7.6-5.1 10.9-10.2 21.7-0.7 1.4-1.4 2.9c-20.7 43.4-45.6 90.6-92.7 109.7-47.8 16.7-89 1.5-133.5-16.8-8.1-3.3-16.2-6.6-24.4-9.7q-2.3-0.9-4.6-1.8-4.3-1.6-8.6-3.2-1.9-0.7-3.9-1.5-1.7-0.6-3.4-1.2c-2.6-1.4-2.6-1.4-4-5.7 0.6-3.6 0.6-3.6 1.6-7.9q0.5-2.4 1.1-4.8 0.6-2.5 1.2-5 0.6-2.4 1.2-4.9 1.1-4.8 2.3-9.7 1.2-4.8 2.3-9.7 0.5-2.4 1-4.7 0.5-2.1 0.9-4.3 0.6-1.5 1.2-3.2c4.9-1.6 6.3-1.2 11.1 0.1q2.1 0.5 4.2 1.1c2.2 0.5 2.2 0.5 4.4 1.1q4.7 1.2 9.3 2.4 2.4 0.6 4.8 1.3c7.3 1.8 14.6 3.5 21.9 5.2q1.9 0.4 3.9 0.9c31 7 60.2 4 87.8-12.1 18.5-12.3 31.3-29.9 44-47.8q3.6-5.1 7.3-10.1c9.3-12.8 18.4-25.8 27.4-38.9q5.3-7.9 10.8-15.8 2-2.9 3.9-5.7c1.5-2.1 1.5-2.1 2.9-4.2z"/>
		<path class="s3" d="m1431.8-339.1c21.1 7.5 41.3 19.9 53.2 39.5 2.1 4.6 2.3 7.9 1.3 12.9-1.8 4.2-1.8 4.2-5.7 7.2-13.4 2.1-28.1-1.7-41.4-3.7-44.7-6.7-86.7-7.3-130.5 5.6-5.3 1.4-9.3 1.7-14.7 0.9-5.4-3.7-6.9-5.8-8.2-12.1 1.1-5.4 2.4-7.1 6.7-10.4 5.8-3.5 12.4-4.7 18.9-6.2q2.1-0.5 4.2-1c4.6-1.1 9.3-2.1 14-3.1 1.4-0.3 1.4-0.3 2.8-0.6 15.9-3.1 31.2-4.3 47.3-4.1q5.4 0 10.7 0c14.2 0 27.8 1 41.8 3.3-13.7-4.7-26.6-8.1-40.9-9.7-5.2-0.7-8.3-1.2-12.6-4.3-3-4.5-3-7.6-2.7-12.9 0.6-3 0.6-3 3.5-6.7 14.3-6.8 37.9 0.9 52.3 5.4z"/>
		<path class="s4" d="m1897.4-357.2c6.1 0.8 8.3 1.5 12.2 6.4 1.6 10.7-1.3 20.4-4.8 30.4q-0.8 2.2-1.6 4.5c-10.8 30.5-26.1 60.2-49.2 83.4 13.3-9.9 23.8-20.2 33.3-33.9 2.3-3.2 2.3-3.2 5.2-4.6 5.2-0.6 7.9-0.4 12.5 2.2 4.3 4.8 4.9 7.1 4.6 13.5-9.5 22.5-33.3 43.1-55.4 52.4-13.3 5.2-27.3 8.5-41.5 6-4.5-2.6-6.7-4.1-8.1-9.2 0.1-10.2 1.8-18.2 8.1-26.4 5.1-4.9 10.6-9.4 16.2-13.8 28.9-23.6 45.7-61.6 55.3-97 2.3-7.9 4.7-12.7 13.2-13.9z"/>
		<path class="s5" d="m1393.2-247.1c19.4 0.2 38.7 3 57.5 7.5-2 10-4 20-6.3 30-0.5 2-0.5 2-0.9 4.1-0.4 1.9-0.4 1.9-0.9 3.9q-0.4 1.7-0.8 3.5c-0.5 1.3-0.5 1.3-1.1 2.6-4.8 1.7-5.5 1.4-10-0.5q-1.7-0.7-3.4-1.4-1.9-0.8-3.7-1.5-1.9-0.8-3.9-1.6-4-1.7-8.1-3.4-6.1-2.5-12.3-5.1-3.9-1.6-7.8-3.2-1.8-0.8-3.7-1.5c-7.2-3.1-12.7-6.3-18.3-11.7-1.5-4.4-1.1-8.3 0-12.8 3.5-4.3 3.5-4.3 7.1-7.1 3.3-3.3 12-1.8 16.6-1.8z"/>
		<path class="s6" d="m1844.4-451c5.3 2.5 7 5.1 9.6 10.4 0.9 9.4-1.7 17.9-4 26.9-0.6 2.2-0.6 2.2-1.1 4.5-2.3 8.7-4.8 17.1-7.7 25.6-5-2.3-8.5-5.1-12.5-8.8-5.5-5.1-11.1-9.9-16.9-14.6-2-2.2-2-2.2-2-7.9 2.4-4.5 5.6-8.5 8.6-12.6q1.1-1.7 2.4-3.4c13.9-19.2 13.9-19.2 23.6-20.1z"/>
		<path class="s6" d="m1794.1-389.3c6.7 4.2 12.6 9 18.6 14.2q2.5 2.2 5 4.4 1.3 1 2.5 2.1c2.4 2.1 2.4 2.1 5 3.9 2.4 1.8 2.4 1.8 6 5.3 0.2 6.9-3 12.9-5.8 19.1q-0.6 1.4-1.2 2.8-1.5 3.3-3 6.6-7.6-6.4-15-13c-8.7-7.6-17.5-15.1-26.3-22.6q1-1.6 2-3.2 1.4-2 2.7-4.2 1.3-2 2.7-4.1 3.5-5.6 6.8-11.3z"/>
		<path class="s7" d="m1474.9-233.9q4.2 0.3 8.3 0.6c2.3 0.2 2.3 0.2 4.7 0.3 4.1 0.5 4.1 0.5 8.4 1.9-1 10.9-3.7 21.3-6.4 31.9q-0.7 2.8-1.4 5.5c-3.4 13.5-3.4 13.5-5 16.8-7.6-0.8-13.4-3.6-20-7.2 1-7.3 2.4-14.5 4.1-21.7q0.4-1.6 0.8-3.2 3-12.5 6.5-24.9z"/>
		<path class="s8" d="m1420.8-316.6c4.8 1.7 9.5 3.6 14.2 5.7-5 1.7-8.7 1.1-13.9 0.1-10.7-1.7-21.3-2.2-32.1-2.4q-2.9-0.1-5.7-0.2-6.9-0.2-13.8-0.4 0-0.7 0-1.4 1.3 0 2.6-0.1 6-0.2 12-0.4c2.1-0.1 2.1-0.1 4.2-0.1q2-0.1 4-0.2c1.8-0.1 1.8-0.1 3.7-0.1 17.6-2.4 17.6-2.4 24.8-0.5z"/>
		<path class="s9" d="m1408.3-318.9q1.2 0.4 2.5 0.9 0 1.4 0 2.8c-3.9 2-7.1 1.6-11.5 1.6q-2.6 0-5.3 0-2.7 0-5.5-0.1-2.7 0-5.5 0-6.8 0-13.5-0.1 0-0.7 0-1.4 1.3 0 2.6-0.1 6-0.2 12-0.4c2.1-0.1 2.1-0.1 4.2-0.1q2-0.1 4-0.2c1.8-0.1 1.8-0.1 3.7-0.1 4.7-0.7 7.6-3.6 12.3-2.8z"/>
		<path class="s10" d="m1845.4-262.4q0.7 2.1 1.5 4.2c-3.8 3.8-7.6 7.6-11.4 11.4q-2.1-0.7-4.3-1.4c4.7-4.7 9.4-9.4 14.2-14.2z"/>
		<path class="s11" d="m1778.5-414.9q1.4 2.1 2.8 4.2c-2.8 4.3-5.6 8.5-8.5 12.9q-1.4-0.7-2.9-1.5c2.1-5.8 5-10.6 8.6-15.6z"/>
		<path class="s12" d="m1816.9-236.8q1.4 1.4 2.9 2.9-2 2.8-4.1 5.7-1.1 1.5-2.3 3.2-1.1 1.2-2.2 2.5-1.4 0-2.8 0c1.7-6.4 3.6-10 8.5-14.3z"/>
		<path class="s13" d="m1873.9-249.6q2.2 0.7 4.3 1.4c-3.3 3.3-6.6 6.6-10 10q-2.1-0.7-4.2-1.4c3.3-3.3 6.6-6.6 9.9-10z"/>
		<path id="Shape 1" fill-rule="evenodd" class="s14" d="m529.3 854c-179.8 0-325.1-145.4-325.1-325.1 0-179.8 145.3-325.1 325.1-325.1 179.7 0 325.1 145.3 325.1 325.1 0 179.7-145.4 325.1-325.1 325.1z"/>
		<path class="s15" d="m537.8 365.7c12.8 8.5 21.8 20.7 25.5 35.8 4.1 23.7 1.4 48.5-6 71.3q-0.5 1.7-1.1 3.4c-4.6 14-10.3 26.5-18.1 39-2.5 3.5-2.5 3.5-2.2 7.1 15.5 7 31 8.5 47.8 9.9 0-1.8 0-1.8 0-3.6-0.8-102.7-0.8-102.7 31.3-136.8 3.2-2.9 6.5-5.6 10-8.1q1.6-1.2 3.2-2.4c17.4-11.8 37.3-13.1 57.7-10.1 15.1 3.8 27.8 14.6 36.4 27.3 10.7 18.9 12.7 41.3 8.3 62.4-10.3 36-34.6 63.3-67 81.5-16.1 8.7-32.5 14.9-50.2 19.5-3.3 53.6-5.9 107.2-7.9 160.9q-0.9 23.5-2 47-0.1 1.9-0.1 3.9-0.6 11.8-1.2 23.5-0.2 3.7-0.3 7.4-0.3 5.2-0.5 10.3c-0.2 2.9-0.2 2.9-0.3 5.8-1.1 6.7-3.3 11.5-8.7 15.7-5.6 1.6-9.7 0.8-15.3-0.6-3.6-2.5-3.6-2.5-6.6-6.6-0.5-4.9-0.7-9.1-0.5-14q0-2.2 0.1-4.4 0.1-7.3 0.4-14.6 0.1-2.5 0.2-5.2c0.5-11.5 1.1-23.1 1.7-34.6q0.7-15 1.5-30 0.2-3.5 0.3-7 1.4-28.3 2.6-56.5 0.1-1.9 0.2-3.9 0.8-18.7 1.6-37.4 0.3-7 0.6-13.9 0.2-4.7 0.4-9.5c0.5-11.6 1.3-23.1 2.5-34.7-1.6 0.1-1.6 0.1-3.1 0.2-22.9 0.9-47-6.2-66.2-18.3q-0.6 1.4-1.2 2.9c-2.1 3.7-2.1 3.7-6.6 6.5-4.5 3.6-4.5 3.6-3.9 10 1.2 6.8 3 13.5 4.8 20.2 7.4 28.7 10.6 58.2 13.8 87.5q0.2 1.9 0.4 3.9c3.1 28.8 4.6 57.4 4.5 86.4q0 2.3 0 4.7c0 31.1-1.3 62.1-3.6 93.1q-0.2 2.7-0.3 5.4c-0.2 2.5-0.2 2.5-0.4 4.9-0.1 2.1-0.1 2.1-0.3 4.2-0.6 3.6-0.6 3.6-4 8.9-5.4 3.3-8.6 4.2-14.9 3.7-3.2-0.7-3.2-0.7-8.1-3.6-5.8-9.4-3.8-19.5-2.9-30.2 1.9-24.5 1.6-49 1.6-73.6q0-1.8 0-3.6c0.1-61.9-3.5-122.6-16.5-183.3-1.2-5.8-2-10.8-2-16.7-2.1 0.7-2.1 0.7-4.1 1.5-32.3 10.1-63 7.5-93-7.8-29.7-17.2-50.1-42.5-61.5-74.7-4.8-20.7-4.6-45.9 6.8-64.2q1-1.8 2.1-3.7c8.4-12.7 21.7-20.9 35.8-26 23.5-2.9 42.8 3.1 61.5 17.6 13.9 11.9 26 24.5 35.9 40.2q-0.1-2.7-0.2-5.4c-0.4-27.5 1.5-55.3 20.2-77.2 17.8-18.3 38.1-24 61.1-11.3z"/>
		<path class="s15" d="m626.6 203.8q2.1 0.7 4.3 1.4c49.6 16.5 92.6 42.6 130.9 78.1q1.5 1.4 3.1 2.8c57.5 54.3 97.3 137.4 99.6 216.8q0.1 3.7 0.2 7.4 0 1.9 0 4 0.1 6.4 0.1 12.8 0 2.2 0 4.5c0 24.9-1.9 48.7-7.1 73.2-0.4 1.8-0.4 1.8-0.8 3.7-15 74.5-61.5 144.8-121.4 191q-1.3 1.1-2.7 2.1c-27.1 20.9-72.1 55-108 53-3.1-0.6-3.1-0.6-7.2-3.1-3.3-5.5-5.1-10.9-4.2-17.3 5.3-9.7 14.6-12.3 24.3-16.1 78.1-32.8 140.2-91.1 172.8-170.2 12.5-31.7 20.8-65.7 21.1-99.8q0.1-2.2 0.1-4.5c0.5-44.9 0.5-44.9-7-89q-0.6-2.1-1.1-4.2c-5.3-20.5-12.8-39.6-22-58.5-0.8-1.6-0.8-1.6-1.6-3.2-12.7-26.1-30.1-49.6-49.6-71q-1.1-1.3-2.3-2.5c-49.2-53.5-125-88.7-197.4-93.3-9.3-0.3-18.5-0.4-27.8-0.4q-1.9 0-3.9 0c-20.1 0.1-39.4 1-59 5.4-2 0.4-2 0.4-3.9 0.9-55.1 12.5-104.6 38.6-146.3 76.7q-1.2 1.1-2.5 2.2c-28.7 26.5-50.3 59.9-66.8 95.1-0.9 1.9-1.8 3.9-2.7 5.8-14.4 32-23.8 69-24 104.1 0 1.8 0 1.8 0 3.5q0 5.6 0 11.1 0 1.9 0 3.8c0 18 0.3 35.5 3.6 53.2q0.3 1.7 0.6 3.5c11 59.5 38.8 115.9 82.2 158.6 4.6 4.6 4.6 4.6 4.6 7.9 1.5 0.6 1.5 0.6 3 1.3 3.8 2.1 6.1 4.2 9 7.3 6.1 6.4 12.8 11.5 20 16.7q2 1.3 3.9 2.8c24.2 16.9 49.8 31 77.5 41.2q2.2 0.8 4.5 1.7 2 0.7 4 1.4c4.3 2.2 6.1 4.3 8.5 8.5 0.6 3.3 0.6 3.3 0.6 7q-0.1 2.1-0.1 4.3 0 2.3-0.1 4.6c0 2.5 0 2.5 0 4.9-0.4 23.9-1.2 47.7-2 71.6q2.1-1 4.4-2c21.2-9.4 39.3-13.7 62.7-13.4q1.8 0 3.6 0c34.8 0.3 65.4 6.6 98 18.8q2.2 0.8 4.4 1.6c11.4 4.4 20.8 8.4 26.5 19.7 0.7 4.5 0.7 4.5 0.8 9.3 0.1 2.6 0.1 2.6 0.2 5.3q0 2.7 0.1 5.5 0.1 5.4 0.2 10.8 0.1 2.6 0.2 5.3c0.2 6.1 0.9 12.1 1.7 18.2 0.2 5.1-1.5 7.9-4.8 11.6-6.2 4.2-9.2 4.1-16.5 3.3-5-2.8-5-2.8-10-6.7-31.9-23.5-68.4-33.8-107.8-29.1-25.8 4.2-48.6 15.5-70 30.1-6 3.9-9.2 5.7-16.5 5.9-6.7-2.3-8.7-3.6-11.9-10.1-0.9-6.4-0.8-12.7-0.6-19.2 0-3 0-3 0.1-6.2 0.1-8 0.3-16 0.5-24.1q0.1-2.7 0.2-5.6 0.6-22.7 1.4-45.3 0-1.7 0.1-3.4 0.3-11.1 0.7-22.2 0.1-2.8 0.2-5.8c0.4-9.5 1-18.8 2.4-28.2q-1.6-0.3-3.2-0.5c-31.7-7.6-62.5-28.9-87.6-49-2.5-2.1-2.5-2.1-5.1-4.1-20.6-16.9-39.9-35.7-56-57q-0.9-1.3-1.9-2.6c-55.8-74-78.8-164.9-67-256.9 10.9-72.6 43.2-137.9 94.6-190.2q3.1-3.1 6.1-6.4c39-40.4 91.6-67.5 144.8-83.5q1.7-0.5 3.5-1.1c61.1-17.9 134.4-15.9 194.5 4.4z"/>
		<path class="s14" d="m399.1 441c14.4 11.4 26.4 24.4 36.1 40q1.4 2.1 2.8 4.3c11.7 18.8 20.4 40.2 25.3 61.7-19.9 9.2-42.2 9.3-62.7 1.7-25.9-12.2-46.3-32.5-56.1-59.4-3.1-12-4.3-27.2 0.8-38.7 4.6-7.7 12-15.6 20.5-18.6 13-1.9 22.7 1.6 33.3 9z"/>
		<path class="s14" d="m683.4 402.9c7.9 4.6 13.2 11.2 16.6 19.8 4.2 18.2 0.9 36.7-8.1 52.7-17.2 26.1-42.8 43.3-71.9 53.5q-2.4 0-4.9 0c-0.4-17.2 0-34.2 1.4-51.3q0.2-2.3 0.4-4.7c2.2-23.1 6.4-46.7 24.6-62.8 12.7-9.4 26.7-14.2 41.9-7.2z"/>
		<path class="s15" d="m131.6 167.5c4.8 2 4.8 2 9.6 4.9q2.7 1.5 5.4 3.1c1.8 1.2 3.7 2.3 5.6 3.4q2.9 1.8 5.8 3.5 8.3 4.9 16.5 9.8 3.6 2.2 7.1 4.3 7.2 4.3 14.4 8.6 5.9 3.6 11.8 7.1 2.3 1.3 4.6 2.6 4.4 2.7 8.8 5.2c16.7 9.9 16.7 9.9 18.6 17.1 0.1 9.6 0.1 9.6-2.8 14-3.8 3.5-7.3 5.4-12.3 6.3-8.7-1.2-15.2-5.6-22.7-10q-2.4-1.4-5-2.9-8-4.6-15.9-9.4-2.7-1.5-5.4-3.2-13.2-7.8-26.4-15.8-8.6-5.2-17.4-10.3c-1.7-1.1-1.7-1.1-3.5-2.1q-4.4-2.6-8.9-5.1c-4.3-3-6.8-5.2-9.4-9.7-0.9-7-0.8-10.3 3.1-16.2 6-6 10.1-5.8 18.4-5.2z"/>
		<path class="s15" d="m270.2 65.2c4.6 3.2 8 7.2 11.5 11.5q2.6 3 5.2 5.9 1.4 1.6 2.9 3.3c4.6 5.3 9.4 10.4 14.2 15.6 6.5 7 13 14 19.2 21.2 5.3 6 10.7 11.8 16.2 17.6 6.9 7.4 10.8 11.7 10.5 22.2-0.8 5.2-3.4 8-7.1 11.6-5 2.5-7.6 2.5-13.2 1.6-9.5-6.8-17.6-15.8-25.5-24.4q-1.6-1.7-3.2-3.5-10.4-11.2-20.5-22.5-5.2-5.7-10.4-11.4-5.7-6.1-11.4-12.4-2-2.2-4-4.5c-5.3-6.2-8.8-10.2-10.4-18.3 1.4-6.1 3.4-9.1 7.8-13.5 5.9-3 12-1.8 18.2 0z"/>
		<path class="s16" d="m735.1 43.3c6.1 0.5 8.9 1.8 13.6 5.4 4.2 6.2 4 9.1 3.3 16.5-1.5 4.3-3.2 8.1-5.2 12.2q-0.8 1.7-1.7 3.5-2.6 5.5-5.3 11-2.8 5.7-5.5 11.4-1.8 3.7-3.6 7.5c-5.4 11.1-10.5 22.4-15.4 33.7-9 20.5-9 20.5-19.4 24.6-6.9 0-10.2-0.5-15.5-5-3.4-6.3-3.7-11.2-2.6-18.1 2.6-7.2 6-14.1 9.4-21q1.4-3 2.9-6.1 2.2-4.7 4.5-9.4c3.6-7.5 7.1-15.1 10.6-22.7q1.4-3.1 2.8-6.3 2.7-6 5.4-12.1c4.2-9.1 7.7-16.6 15.5-23 1.7-1.7 1.7-1.7 6.2-2.1z"/>
		<path class="s16" d="m895.6 170.8c6.5 4.1 9.4 6.6 11.8 13.9-0.3 7-2.2 10.8-6.8 15.8-4.6 3.4-9.5 6.2-14.5 9q-4.4 2.5-8.9 5.1-2.3 1.4-4.7 2.8c-10.3 6.1-20.3 12.5-30.4 18.8q-12.3 7.8-24.8 15.3-2.4 1.5-4.8 2.9c-4.3 2.2-4.3 2.2-10.8 2.7-6.7-2.8-9.5-5.9-13.4-12-0.9-5.1-0.9-5.1 0-10 4.4-6.2 8.8-10 15.3-13.9q2.5-1.6 5.2-3.2c1.8-1.1 3.6-2.1 5.5-3.3q2.9-1.7 5.8-3.4 4.4-2.7 8.8-5.4c10.4-6.2 20.7-12.7 30.9-19.1q4.9-3.1 9.7-6.1 2-1.2 4.1-2.5 1.9-1.2 3.9-2.5c2.1-1.3 2.1-1.3 4.3-2.7 5.1-2.9 8-3.2 13.8-2.2z"/>
		<path class="s16" d="m530.9 10.7c6.3 2.9 8.9 5.3 11.6 11.6 0.6 3.4 0.6 3.4 1 7q0.2 2 0.4 4.2 0.1 2.2 0.3 4.5 0.3 2.3 0.5 4.7 0.4 4.9 0.8 9.9 0.7 7.4 1.4 14.8c1.4 16.1 2.5 32.2 2.9 48.4q0.1 2.1 0.2 4.3c0 7.4-0.2 10.2-4.9 16.1-5.3 4-7.8 4.5-14.3 4.1-5.5-1.5-8.1-4.7-11.4-9.1-1.6-4.9-2.1-9.8-2.5-14.9q-0.2-2.5-0.4-5.1-0.2-2.6-0.4-5.4c-0.2-2.8-0.2-2.8-0.4-5.6q-0.5-5.9-0.9-11.8-0.7-8.9-1.4-17.8-0.5-5.8-0.9-11.5-0.2-2.6-0.4-5.3c-2.3-30.9-2.3-30.9 2.1-38.3 5.7-5 9.2-5.4 16.7-4.8z"/>
		<path class="s14" d="m519.4 390.3c7.1 4.2 10.1 8.9 13.2 16.5 7.7 31.9-5.7 67.6-21.7 94.9q-0.7 1.2-1.4 2.4-1.7 0-3.3 0-3.2-6.1-6.3-12.2-0.9-1.7-1.8-3.5c-7.2-14.2-11-26.5-10.7-42.5q0-2.3 0-4.7c0.5-18.1 3.3-33.5 15.5-47.6 6.1-4.1 9.2-4.1 16.5-3.3z"/>
	</g>
</svg>