<svg version="1.2" xmlns="http://www.w3.org/2000/svg" viewBox="0 0 1024 1024" width="520" height="520">
	<title>bulb-2</title>
	<style>
		.s0 { fill: #ffdc38 } 
		.s1 { fill: #030303 } 
		.s2 { fill: #222324 } 
		.s3 { fill: #212223 } 
	</style>
	<g id="Folder 3">
		<path class="s0" d="m291.8 241.7q2.9 0 5.8 0 9.6 0 19.2 0 6.6 0 13.3 0 13.9 0 27.9 0 16.1 0 32.2 0 15.5 0 31 0 6.6 0 13.2 0 9.2 0 18.4 0 2.7 0 5.5 0c12.3 0.1 20.8 1.4 30.4 9.6 9.2 10.8 12.9 18.9 12.7 33-1.4 17.4-9.2 31.9-17.9 46.7-10.4 17.8-14.3 34-11.1 54.7 4.6 16.9 14.7 29.3 29.7 38 16.4 7.9 33.9 8.8 51.2 2.9 16.3-7 27.4-17.3 35.1-33.3 6-15.8 6.2-32.8 0-48.5-4.1-8.6-9-16.8-14-24.9-8.3-15.1-14.6-33.9-10.1-51.1 4.3-11.3 12-19.8 23.1-24.9 4.5-1.6 7.8-2 12.6-2q2.4 0 4.8 0 2.6 0 5.2 0 2.7-0.1 5.6-0.1 9 0 18.1 0 6.3 0 12.6 0 13.3-0.1 26.5-0.1 13.6 0 27.2 0 16.4-0.1 32.8-0.1 6.3 0 12.5-0.1 8.8 0 17.5 0 2.6 0 5.2 0c19.1 0.1 35.4 7.9 49.3 20.7 14.2 15 18.9 31.9 18.9 52.1q0 2.1 0 4.3 0.1 4.8 0.1 9.5 0 7.4 0.1 14.9 0.1 21.1 0.2 42.3 0.1 13 0.2 26 0 4.9 0 9.8 0.1 7 0.1 13.9 0 2 0 4.1c0.1 8.1 1.4 13.7 5.8 20.8 5.9 5.2 11.1 5.5 18.8 5.4 8.9-0.7 17.6-2.8 26.3-4.7 34.4-7.4 67.9-12.1 99.1 8.1 12.1 9.1 21.2 19.4 27.5 33.3q1 2.1 2 4.3c7.8 18.6 6.9 39.3-0.6 57.9-9.3 20.3-24.4 37.6-45.4 46.2-26.5 9.1-49.7 6.9-76.4-1-23.2-7.2-23.2-7.2-47-4.3-6 4.4-10.3 9.2-11.7 16.8-0.2 4.2-0.2 8.4-0.2 12.6 0 2.4 0 2.4 0 4.8q0 5.2 0 10.4 0.1 8.2 0 16.4c0 13.6 0 27.3 0 40.9q0 17.2 0 34.5 0 8.1 0 16.1c0 26.2-2.5 48.4-21 68.4-11.2 10.7-26.5 20.1-42.4 20.2-2.1 0.1-2.1 0.1-4.3 0.1-2.4 0-2.4 0-4.7 0q-2.5 0-5 0-8.2 0.1-16.4 0.1c-2.8 0-2.8 0-5.7 0q-14.9 0.1-29.7 0.1-15.3 0-30.6 0.1-11.8 0.1-23.6 0.1-5.6 0-11.3 0-7.9 0.1-15.8 0.1c-2.3 0-2.3 0-4.6 0-17.5-0.1-32.7-7-45-19.4-13-17.3-15.7-36.1-13.4-57.3 3.5-15.6 11.2-30.1 18.3-44.4 8.9-18.2 12.7-37.8 6.9-57.6-6.9-15.1-17.2-25.6-32.6-31.9q-3.9-1.4-7.8-2.7-2.5-0.8-5-1.7c-16.1-1.9-29.2 2.3-42.7 11-10.6 8.4-17.1 20.1-21.3 32.9-1.6 18.2 1.1 32.1 8.4 48.9 0.9 2.1 0.9 2.1 1.8 4.2q1 2.3 2 4.7 1 2.3 2.1 4.7 2 4.6 4 9.2c9.8 22.3 12.1 43.4 3.9 66.8-6.3 15.1-16.7 22.7-31.4 29.4-8.6 3.1-16.8 3.1-25.8 3.1q-2.7 0-5.4 0-8.7 0.1-17.5 0.1-6.1 0-12.2 0-12.8 0-25.7 0-16.3 0-32.7 0.1-12.6 0.1-25.3 0.1-6 0-12 0c-28 0.2-50.2 0-71.3-20.7-15-16.2-21.5-32.3-21.3-54.5q0-2.6 0-5.3 0-5.7 0-11.3 0-9 0-17.9-0.1-15.7-0.1-31.5 0-25.2-0.1-50.5 0-8.8 0-17.6 0-5.4 0-10.7 0-2.5 0-5 0-2.2 0-4.5 0-2 0-4c-0.8-4.5-2.7-6.9-5.7-10.3-10.4 0.2-15.8 4.2-24 10.3-24.6 17.1-53.6 24.1-83.3 18.9-21.7-5.6-38.5-16.8-54.3-32.6-1.4-1.4-1.4-1.4-2.9-2.9-19.4-20.6-23.7-47.3-22.9-74.5 1.2-23.3 12.7-46.1 29.2-62.5 27.9-23.6 55-30.1 90.9-27 18.2 3 34.3 12.5 49.3 22.9 7 4.8 7 4.8 15.3 5.8 4.9-1.4 4.9-1.4 7.8-6.8 0.3-5 0.4-9.9 0.4-15q0-2.2 0-4.6 0-5 0-10 0-7.9 0-15.8 0.1-22.6 0.1-45.1 0-13.8 0.1-27.6 0-5.2 0-10.4c-0.2-26.2 1.5-45.4 20.6-65.1 15.9-14.6 31.1-19.6 52.4-19.5z"/>
		<path class="s1" d="m291.8 241.7q2.9 0 5.8 0 9.6 0 19.2 0 6.6 0 13.3 0 13.9 0 27.9 0 16.1 0 32.2 0 15.5 0 31 0 6.6 0 13.2 0 9.2 0 18.4 0 2.7 0 5.5 0c12.3 0.1 20.8 1.4 30.4 9.6 9.2 10.8 12.9 18.9 12.7 33-1.4 17.4-9.2 31.9-17.9 46.7-10.4 17.8-14.3 34-11.1 54.7 4.6 16.9 14.7 29.3 29.7 38 16.4 7.9 33.9 8.8 51.2 2.9 16.3-7 27.4-17.3 35.1-33.3 6-15.8 6.2-32.8 0-48.5-4.1-8.6-9-16.8-14-24.9-8.3-15.1-14.6-33.9-10.1-51.1 4.3-11.3 12-19.8 23.1-24.9 4.5-1.6 7.8-2 12.6-2q2.4 0 4.8 0 2.6 0 5.2 0 2.7-0.1 5.6-0.1 9 0 18.1 0 6.3 0 12.6 0 13.3-0.1 26.5-0.1 13.6 0 27.2 0 16.4-0.1 32.8-0.1 6.3 0 12.5-0.1 8.8 0 17.5 0 2.6 0 5.2 0c19.1 0.1 35.4 7.9 49.3 20.7 14.2 15 18.9 31.9 18.9 52.1q0 2.1 0 4.3 0.1 4.8 0.1 9.5 0 7.4 0.1 14.9 0.1 21.1 0.2 42.3 0.1 13 0.2 26 0 4.9 0 9.8 0.1 7 0.1 13.9 0 2 0 4.1c0.1 8.1 1.4 13.7 5.8 20.8 5.9 5.2 11.1 5.5 18.8 5.4 8.9-0.7 17.6-2.8 26.3-4.7 34.4-7.4 67.9-12.1 99.1 8.1 12.1 9.1 21.2 19.4 27.5 33.3q1 2.1 2 4.3c7.8 18.6 6.9 39.3-0.6 57.9-9.3 20.3-24.4 37.6-45.4 46.2-26.5 9.1-49.7 6.9-76.4-1-23.2-7.2-23.2-7.2-47-4.3-6 4.4-10.3 9.2-11.7 16.8-0.2 4.2-0.2 8.4-0.2 12.6 0 2.4 0 2.4 0 4.8q0 5.2 0 10.4 0.1 8.2 0 16.4c0 13.6 0 27.3 0 40.9q0 17.2 0 34.5 0 8.1 0 16.1c0 26.2-2.5 48.4-21 68.4-11.2 10.7-26.5 20.1-42.4 20.2-2.1 0.1-2.1 0.1-4.3 0.1-2.4 0-2.4 0-4.7 0q-2.5 0-5 0-8.2 0.1-16.4 0.1c-2.8 0-2.8 0-5.7 0q-14.9 0.1-29.7 0.1-15.3 0-30.6 0.1-11.8 0.1-23.6 0.1-5.6 0-11.3 0-7.9 0.1-15.8 0.1c-2.3 0-2.3 0-4.6 0-17.5-0.1-32.7-7-45-19.4-13-17.3-15.7-36.1-13.4-57.3 3.5-15.6 11.2-30.1 18.3-44.4 8.9-18.2 12.7-37.8 6.9-57.6-6.9-15.1-17.2-25.6-32.6-31.9q-3.9-1.4-7.8-2.7-2.5-0.8-5-1.7c-16.1-1.9-29.2 2.3-42.7 11-10.6 8.4-17.1 20.1-21.3 32.9-1.6 18.2 1.1 32.1 8.4 48.9 0.9 2.1 0.9 2.1 1.8 4.2q1 2.3 2 4.7 1 2.3 2.1 4.7 2 4.6 4 9.2c9.8 22.3 12.1 43.4 3.9 66.8-6.3 15.1-16.7 22.7-31.4 29.4-8.6 3.1-16.8 3.1-25.8 3.1q-2.7 0-5.4 0-8.7 0.1-17.5 0.1-6.1 0-12.2 0-12.8 0-25.7 0-16.3 0-32.7 0.1-12.6 0.1-25.3 0.1-6 0-12 0c-28 0.2-50.2 0-71.3-20.7-15-16.2-21.5-32.3-21.3-54.5q0-2.6 0-5.3 0-5.7 0-11.3 0-9 0-17.9-0.1-15.7-0.1-31.5 0-25.2-0.1-50.5 0-8.8 0-17.6 0-5.4 0-10.7 0-2.5 0-5 0-2.2 0-4.5 0-2 0-4c-0.8-4.5-2.7-6.9-5.7-10.3-10.4 0.2-15.8 4.2-24 10.3-24.6 17.1-53.6 24.1-83.3 18.9-21.7-5.6-38.5-16.8-54.3-32.6-1.4-1.4-1.4-1.4-2.9-2.9-19.4-20.6-23.7-47.3-22.9-74.5 1.2-23.3 12.7-46.1 29.2-62.5 27.9-23.6 55-30.1 90.9-27 18.2 3 34.3 12.5 49.3 22.9 7 4.8 7 4.8 15.3 5.8 4.9-1.4 4.9-1.4 7.8-6.8 0.3-5 0.4-9.9 0.4-15q0-2.2 0-4.6 0-5 0-10 0-7.9 0-15.8 0.1-22.6 0.1-45.1 0-13.8 0.1-27.6 0-5.2 0-10.4c-0.2-26.2 1.5-45.4 20.6-65.1 15.9-14.6 31.1-19.6 52.4-19.5zm-27.1 52.2c-5.2 7.9-5.4 15.5-5.3 24.8 0 2.2 0 2.2 0 4.6q0 4.9 0 9.8 0.1 7.8 0 15.6c0 12.9 0 25.9 0 38.8q0 16.4 0 32.8 0 7.6 0 15.3c0 19.7-0.3 38.5-14.7 53.8-12.5 10.6-24.8 13.4-40.9 13.2-14.6-1.4-26.7-9.2-39-16.8-18-11-33.2-14.7-54.4-12.4-6.4 1.8-11.4 4.6-16.8 8.4q-1.8 1.1-3.6 2.3c-11.8 8.9-20.8 25.3-23.3 39.8-1.8 16.4 2.4 31.9 12 45.2 10.2 12.2 23.3 21.4 39.3 22.8 22.5 0.1 36.8-5.3 55.5-17.1 16.1-10.1 30.9-12.3 49.7-10.4 11.9 3.7 21.1 9.3 28.3 19.5 6.1 12.4 7.8 23.5 7.7 37.2 0 2.6 0 2.6 0 5.2q0 5.6 0 11.2 0 8.8 0 17.6 0.1 25.2 0.1 50.3 0 15.4 0.1 30.8 0 8.6 0 17.3 0 5.4 0 10.7 0 2.4 0 4.9c0.1 11.4 2.4 21 10.6 29.4q1.5 0.9 3 1.9 1.4 0.9 2.9 1.9c5.1 2.7 9.3 3.4 14.9 3.5 2.2 0 2.2 0 4.3 0 2.4 0 2.4 0 4.8 0q2.4 0.1 4.9 0.1 8.2 0 16.4 0.1 2.8 0 5.6 0 14.8 0.1 29.6 0.1 15.2 0.1 30.5 0.2 11.7 0.1 23.5 0.1 5.6 0 11.2 0.1 7.9 0 15.8 0c2.3 0 2.3 0 4.7 0.1 7.6-0.1 10.7-0.3 16.9-5.1 5-6.7 5.9-11.4 4.9-19.6-4.3-17.9-12.8-34.9-20.2-51.7-9.8-22.9-10.9-53.2-2.2-76.6 12.5-27.5 31.2-46.6 59.4-57.4 3.9-1.2 7.8-2.3 11.9-3.1q1.9-0.5 3.8-1c27.3-4.6 52.7 2 75.3 17.8 19.9 15.2 32.8 35.9 38 60.6 4.1 33.1-5.8 59.1-19.7 88.5-8.6 17.5-8.6 17.5-8.2 36.4 3.7 4.8 6.4 7.4 11.8 10.1 4.7 0.2 9.4 0.3 14.2 0.3q2.2 0 4.4 0 7.4 0 14.7 0.1 5.1 0 10.2 0 10.7 0 21.4 0 13.7 0 27.4 0.1 10.5 0.1 21.1 0.1 5 0 10 0 7.1 0 14.2 0 2.1 0 4.2 0.1c10.4-0.1 20.1-1.7 28.3-8.7q1.1-1.5 2.3-3c1.2-1.6 1.2-1.6 2.4-3.1 4.7-6.8 3.9-13.6 3.9-21.6q0-2.4 0-4.8 0-5.3 0.1-10.5 0-8.3 0.1-16.6 0.2-23.6 0.3-47.3 0.1-14.4 0.2-28.8 0-5.5 0.1-11 0-7.7 0.1-15.4 0-2.3 0-4.6c0.2-20.9 5.7-37.2 20-52.7 17.6-15.4 37.4-16.9 59.6-15.9 13.9 1.4 27.2 6.2 40.4 10.6 15 4.8 29.5 6.2 43.8-1.3 11.4-6.9 17.7-14.7 21.8-27.3 1.6-10.9 1.3-21.1-4.3-30.7-6.5-8.3-14.1-15.1-24.3-18.2-4.5-0.5-8.7-0.7-13.1-0.8q-2 0-3.9 0c-16.9 0.4-33.2 4.4-49.5 8.2-21.7 5-42.7 5.2-62.2-6.5-13.1-9.2-22.1-23.3-25.4-39.1-0.9-6.8-1-13.5-1-20.4 0-2.2 0-2.2 0-4.4q0-4.7 0-9.4-0.1-7.5-0.1-14.9-0.1-21.2-0.2-42.3 0-13-0.1-25.9-0.1-4.9-0.1-9.9 0-6.9 0-13.8 0-2 0-4.1c-0.2-8.8-1.9-13.7-7.7-20.7-6.6-6-11.5-8.7-20.4-8.7q-2.1 0-4.2 0-2.3 0-4.7 0-2.4 0-4.9 0-8.1 0-16.2 0.1-5.6 0-11.2 0-14.7 0-29.4 0-15.1 0-30.1 0-29.5 0.1-59 0.1c-0.1 7.3 0.1 11.6 3.8 17.9q1.2 2 2.5 4.2 1.2 2.1 2.6 4.4c14.6 25.7 22.8 51.4 16.8 81.2-7.5 27.7-22.9 52-47.8 66.8-25.1 13.5-54.7 18.1-82.9 11.2-12.7-4.3-23.8-10.9-34.7-18.8-1.8-1.2-3.5-2.5-5.4-3.7-20-19.6-31.6-44.5-32.1-72.4q0-2.1-0.1-4.3 0-1.9 0-4c0.2-14.6 3.3-27 10.1-39.9 0.9-1.7 0.9-1.7 1.8-3.5q4.4-8.5 9.1-16.8c1-1.9 2.1-3.8 3.2-5.8q1.5-2.6 3-5.2c2.2-5 1.9-6.3 0.3-11.3q-34.2-0.3-68.4-0.4-15.9-0.1-31.8-0.2-15.4-0.1-30.7-0.2-5.8 0-11.7-0.1-8.2 0-16.4 0-2.4-0.1-4.9-0.1c-11.9 0.1-20.6 2.9-28.6 12.1z"/>
		<path class="s2" d="m820.8 571.1q1.7 1.7 3.4 3.4-3.2 3-6.4 5.9c-1.8 1.7-1.8 1.7-3.7 3.3-3.4 2.6-3.4 2.6-8.4 2.6q2.3-2.8 4.7-5.7 1.3-1.5 2.6-3.2c2.8-2.9 2.8-2.9 7.8-6.3z"/>
		<path class="s3" d="m443.7 645.3q1.7 0 3.4 0-0.6 3.4-1.4 6.7-0.3 1.8-0.7 3.7-0.6 1.5-1.3 3.1-2.5 0.9-5 1.7c1.7-5 3.3-10 5-15.2z"/>
	</g>
</svg>