<?xml version="1.0" encoding="UTF-8"?>
<svg id="Layer_1" data-name="Layer 1" xmlns="http://www.w3.org/2000/svg" viewBox="0 0 46.85 31.4">
  <defs>
    <style>
      .cls-1 {
        fill: #328fb7;
      }

      .cls-1, .cls-2 {
        stroke-width: 0px;
      }

      .cls-2 {
        fill: #fff;
      }
    </style>
  </defs>
  <polygon class="cls-2" points="6.52 2.26 5.86 4.64 7.02 8.26 9.86 12.56 7.39 12.56 4.03 12.97 .88 15.7 .88 17.92 2.12 19.57 5.37 20.35 8.42 20.6 10.86 20.21 12.08 20.13 12.29 22.6 13.72 25.49 16.97 27.28 20.8 28.26 25.65 27.28 29.52 23.46 31.35 19.05 31.52 12.83 28.96 7.98 25.15 5.96 21.14 6.64 18.29 8.43 16.88 10.01 15.99 11.2 15.82 10.18 15.39 8.39 14.03 5.2 10.86 2.26 7.86 1.45 7.02 1.62 6.52 2.26"/>
  <polygon class="cls-2" points="37.56 12.17 36.63 14.79 36.63 18.48 37.56 20.21 38.84 20.21 41.14 21.49 44.16 22.01 46.5 20.39 45.05 18.86 43.39 18.86 42.82 18.69 42.82 18.18 44.33 16.55 44.42 15.22 43.74 14.86 41.22 15.91 39.95 16.81 39.66 16.26 39.66 13.58 38.59 11.84 38.14 11.54 37.56 12.17"/>
  <g>
    <path class="cls-1" d="m.85,14.59c1.71-2.11,4.22-3.17,6.87-2.78.38.05.84.11,1.21.16-.22-.3-.35-.47-.45-.58-1-1.15-1.83-2.38-2.47-3.76-.62-1.33-.94-2.72-.8-4.15.19-2.01,2.14-3.19,4.05-2.8,1.53.31,2.93,1.38,4,2.48.24.25.47.51.69.77.63.77,1.15,1.63,1.53,2.55.42,1.01.61,2.09.88,3.14-.11-.19,2.06-1.95,2.28-2.11,1.47-1.08,3.2-1.74,5.03-1.86.7-.04,1.29,0,1.6-.74.35-.85.63-1.7,1.08-2.5.16-.28.35-.52.4-.84.06-.32-.1-.62.02-.94.12-.31.4-.58.73-.61.37-.04.71.2.96.48.16.18.3.38.37.6.35,1.19-1.31.72-1.65,1.49-.35.79-.71,1.57-.84,2.44-.12.79.29.78.96,1.1,1.65.78,2.94,2.42,3.93,3.91.05.07.11.15.2.14.05,0,.09-.04.13-.07.67-.58,1.27-1.11,2.08-1.49.41-.19.78-.4.99-.88.22-.5.91-.67,1.31-.47.55.28.75.9.48,1.53-.22.52-.78.75-1.35.42-.46-.26-.72-.09-1.09.14-.67.43-1.15,1.05-1.73,1.57-.69.63-.22,1.49-.08,2.25.19,1.01.22,2.09.14,3.09-.09,1.19-.34,2.46-.74,3.71-.03.55.04,1.06.26,1.6.27.64.7,1.14,1.1,1.68.22.3.43.26.67.04.29-.28.52-.61.81-.9.66-.64,1.29-1.3,2.02-1.85.2-.15.38-.34.24-.69-.84-2.2-.81-4.77-.16-7.01.22-.77.89-1.75,1.79-1.72,1.34.05,1.99,1.81,1.92,2.93-.02.28-.16,2.29-.35,2.52.36-.28.89-.73,1.25-1.01.78-.61,1.77-1.19,2.79-1.21.34,0,.71.1.93.36,1.08,1.25-.98,3.04-1.72,3.66,1.43-.37,3.68.24,3.7,1.91.02,1.56-2.63,1.81-3.75,1.78-1.58-.05-3.09-.63-4.48-1.34-.62-.32-.61-.31-1.12.14-.75.66-1.39,1.43-2.1,2.13-.39.38-.57.63-.31,1.21.46,1.05.09,1.52-1.04,1.52-.03,0-.06,0-.08,0-.38-.13-.55.08-.67.39-.47,1.26-1.11,2.45-1.56,3.72-.17.47-.47.9-.73,1.34-.1.16-.26.29-.48.23-.21-.06-.29-.24-.29-.44,0-.19,0-.38.05-.56.18-.71.39-1.41.71-2.06.49-.99.81-2.06,1.37-3.02.09-.15.21-.36.02-.52-.77-.64-1.09-1.62-1.73-2.39l.12-.35c-1.71,3.68-4.78,6.73-9.02,6.54-.57-.03-.88.24-1.21.64-.58.7-1.29,1.31-2.14,1.66-.5.2-1.97.63-1.91-.41.02-.33.29-.6.58-.76.5-.27,1.07-.46,1.6-.67.27-.11.53-.23.7-.48-.11-.17-.26-.15-.38-.17-1.43-.27-2.83-.66-4.11-1.39-.3-.17-.41,0-.57.21-.71.93-1.66,1.52-2.81,1.78-.45.1-1.15,0-1.33-.5-.11-.32.1-.68.39-.86.4-.24.91-.23,1.35-.4.46-.17.89-.39,1.31-.63.45-.26.45-.4.16-.82-.34-.48-.75-.92-.97-1.48-.4-1.03-.65-2.1-.77-3.21-.07-.66-.09-.66-.73-.49-1.9.51-3.82.64-5.77.38-1.44-.2-3.15-.8-4.2-1.84-1.28-1.27-1.19-3.19-.09-4.54m38.86,5.78s0,0,0,.01c.17.25.51.42.79.53.43.16.89.24,1.34.31.9.14,1.84.09,2.72-.15.52-.14,1.98-.6,1.17-1.29-.63-.71-1.96-.76-2.84-.66-.62.07-1.22.22-1.8.41-.25.08-1.45.39-1.43.71,0,.04.02.08.05.12m-.42-1.42c.06.06.15.1.24.1.75,0,1.52-.41,2.15-.77.72-.41,1.49-.94,2.02-1.59.24-.29.42-.65.45-1.02.07-.86-1.19-.26-1.55-.07-1.08.57-2.05,1.36-2.84,2.3-.16.19-.74.8-.48,1.05m-1.93-.29c.04.22.19.64.4.67.08.01.17-.03.27-.17.58-.87.8-1.95.98-2.96.19-1.07.27-2.23-.06-3.28-.08-.25-.2-.51-.42-.65-1.06-.65-1.36,1.99-1.38,2.53-.05,1.29-.04,2.59.22,3.87M14.54,7.3c-.39-1.02-.98-1.89-1.69-2.72-1.23-1.43-3.14-3.06-5.21-2.61-.47.1-.77.31-.92.76-.19.53-.22,1.07-.18,1.63.21,2.51,1.57,4.82,3.19,6.71.43.5,2.95,3.44,3.72,2.97.06-.04.1-.1.14-.16.28-.47.56-.93.84-1.4.45-.75.68-1.42.74-2.08.09-.98-.19-1.94-.63-3.09m16.59,6c-.08-.43-.18-.86-.29-1.28-.05-.17-.45-1.06-.38-1.18-.41.69-1.01,1.23-1.83,1.32-1.42.15-3.93-1.04-4.07-2.66-.04-.51.26-1.02.7-1.29,1.13-.7,2.65.06,3.06,1.25.05.14.08.31.03.45-.08.21-.32.31-.55.29-.63-.07-.86-.84-1.31-1.19-.12-.09-.27-.18-.42-.16-.15.02-.28.15-.32.3-.04.15,0,.31.06.45.35.73,1.51,1.21,2.25,1.36.45.1.93.09,1.23-.39.29-.47.24-.95-.07-1.37-1.48-2.07-3.4-3.13-6.04-2.73-1.94.29-3.47,1.29-4.89,2.59-1.28,1.17-2.62,2.7-2.65,4.53-.06,3.31,3.42,5.93,6.23,6.97,3.66,1.35,8.83,1.11,9.4-3.69.14-1.17.06-2.4-.15-3.56m-2.76,10.66c.82-.67,1.24-1.72,1.58-2.74,0-.01,0-.03.01-.04-2.7,1.65-6.17,1.77-9.07.54-1.45-.61-2.76-1.55-3.86-2.68-.88-.91-1.52-1.89-2.12-3.01-.1-.19-.29-.66-.49-.77-.19-.1-.32.12-.43.31-.44.79-.24,1.9,0,2.72,1.05,3.5,4.18,6.26,7.72,6.78,1.33.2,2.69.1,4.02-.12.94-.16,1.9-.39,2.64-1m-13.09,2.15c1.06.78,2.35,1.17,3.63,1.4,1.33.24,2.7.32,4.04.08,1.32-.24,2.61-.8,3.59-1.74,0,0,.01-.01.02-.02-1.85.45-3.8.57-5.67.21-1.83-.35-3.62-1.27-5.01-2.52-1.3-1.17-2.1-2.76-2.81-4.34-.71,2.48.15,5.4,2.22,6.92M1.23,17.18c.03.27.13.5.28.73,1.22,1.82,3.97,2.19,6.03,2.22.13,0,.27,0,.42,0,1.15.01,2.82-.03,3.59-.73.39-.35.39-.93.5-1.4.15-.64.36-1.26.63-1.86.08-.18.17-.37.14-.56-.13-.72-1.63-1.37-2.22-1.64-.91-.42-1.89-.69-2.87-.86-2.14-.38-4,.21-5.57,1.63-.73.66-1.02,1.5-.93,2.46"/>
    <path class="cls-1" d="m22.36,15.36c-.03-.23.02-.46.08-.68.1-.36.23-.71.39-1.05.12-.26.26-.52.5-.68.23-.16.58-.18.79.02.14.14.18.34.19.54,0,.1,0,.2,0,.29-.02.57-.21,1.1-.49,1.6-.32.57-1.35.81-1.47-.04"/>
    <path class="cls-1" d="m28.83,16.2c-.06.3-.19.61-.44.79s-.62.22-.85.02c-.19-.17-.24-.44-.25-.69-.02-.48.06-.96.25-1.41.09-.22.22-.44.41-.59s.47-.2.68-.07c.29.18.35.61.33,1.05-.02.34-.08.68-.13.89"/>
    <path class="cls-1" d="m26.07,19.17c-.43.38-1.09.53-1.6.27-.52-.27-.77-.9-.72-1.48,0-.04,0-.08.02-.11.01-.05.03-.1.05-.15.21-.4.56-.4.69,0,.09.28.06.62.29.83.14.13.35.17.52.1.15-.06.26-.19.36-.31.1-.12.2-.26.34-.33.14-.08.34-.08.44.04.09.1.1.25.07.38-.06.3-.24.57-.47.77"/>
  </g>
</svg>