<svg version="1.2" xmlns="http://www.w3.org/2000/svg" viewBox="0 0 1024 1024" width="500" height="500">
	<title>ChatGPT Image Aug 21, 2025, 06_20_27 PM</title>
	<style>
		.s0 { fill: #171716 } 
		.s1 { fill: #ffdc38 } 
		.s2 { fill: #fefcf8 } 
		.s3 { fill: #161615 } 
		.s4 { fill: #cfc7c1 } 
		.s5 { fill: #e5e0da } 
		.s6 { fill: #2c2b2a } 
		.s7 { fill: #1f1e1d } 
		.s8 { fill: #cfccc9 } 
		.s9 { fill: #1e1d1c } 
		.s10 { fill: #f1ece7 } 
		.s11 { fill: #f2f0ee } 
		.s12 { fill: #f0ebe7 } 
		.s13 { fill: #f0ebe6 } 
		.s14 { fill: #201f1e } 
		.s15 { fill: #ebe6e0 } 
		.s16 { fill: #e3e1df } 
		.s17 { fill: #908d8b } 
		.s18 { fill: #f4f3f1 } 
		.s19 { fill: #232221 } 
		.s20 { fill: #292827 } 
	</style>
	<g id="Folder 1">
		<path class="s0" d="m755.4 273.4q1.2 0 2.5-0.1 4.1 0 8.2 0 1.3 0 2.8 0c63 0.2 63 0.2 80.6 13 1.5 2.1 1.5 2.1 2.6 4.4q0.5 1.1 1 2.2c2.3 6.3 2.3 12.7 2.2 19.3 0 1.5 0 1.5 0 3.1q0 5.2 0 10.4 0 3.9 0 7.8 0 12.8-0.1 25.5 0 4.2 0 8.4-0.2 41.9-0.4 83.8 0 1.8 0 3.6 0 1.8 0 3.6-0.1 14.4-0.2 28.9-0.1 14.2-0.1 28.4-0.1 8.4-0.1 16.7c-0.1 23.1-0.3 46.2-0.9 69.3q0 1.5 0 3-0.4 17.1-1.3 34.1c-0.4 6.4-0.6 12.7-0.6 19.1q0 1.5 0 3 0 4.8 0 9.6 0 3.4 0 6.9 0 7.2 0 14.4 0 9 0 17.9c0 25.9 0.2 51.7 0.8 77.6 0.5 20.5 0.6 41.1 0.6 61.7q0 4.8 0 9.6-0.1 11.5-0.1 23 1.1 0 2.2 0 11.1-0.1 22.2-0.2 4.1 0 8.3-0.1 5.9 0 11.9 0 1.8-0.1 3.7-0.1c7.2 0 12.6 0.7 19.1 3.8 2.8 3 4.4 5 4.7 9.2-0.2 3.7-0.6 6.2-3.3 8.8-3.1 1.7-4.9 1.9-8.5 1.9q-1.8 0-3.6 0c-2 0-2 0-4 0q-2.1 0-4.3 0-5.9 0-11.8 0-6.4 0-12.8 0-11.3 0-22.5 0-16.7 0-33.4 0-29.9 0-59.7 0-26.2 0-52.3 0-1.7 0-3.5 0-7 0-14.1 0-65.9 0-131.9 0-58.6 0-117.3 0-65.8 0-131.6 0-7.1 0-14.1 0-1.7 0-3.5 0-26.1 0-52.2 0-29.7 0-59.4 0-16.6 0-33.2 0-11.1 0-22.2 0-6.3 0-12.7 0-6.8 0-13.6 0-2 0-4 0c-7.8 0-14.1-0.5-20.2-5.8-4.3-5.8-5.6-10.3-5.8-17.5 9.3-0.9 18.5-1.3 27.8-1.3 2 0 2 0 4 0q6.5 0 13 0 4.5 0.1 9.1 0.1 10.7 0 21.3 0 12.2 0 24.4 0 25 0 50 0.1c-1.1-1.7-1.1-1.7-2.3-3.5-0.2-2.1-0.2-2.1-0.2-4.6q0-1.4 0-2.9c0-1.5 0-1.5 0.1-3.1 0-1.7 0-1.7 0-3.4q0-3.6 0-7.2 0.1-10.1 0.1-20.1 0-2.2 0.1-4.3c0-12.8-0.3-25.6-0.5-38.4-0.8-35.8-0.8-71.7-0.8-107.5q0-6.8 0-13.5-0.1-10.9-0.1-21.7 0.1-4 0-8 0-12.3 0.2-24.6 0-1.6 0-3.1 0.1-4.3 0.3-8.5c0-1.2 0-1.2 0-2.4 0.3-6.1 2.1-9.7 5.4-14.6 2.2-1.7 2.2-1.7 4.4-2.7q1-0.5 2.1-1c6.3-2 12.9-2.2 19.5-2.2q1.2-0.1 2.5-0.1 4 0 8.1 0 1.3 0 2.7 0c15.3 0 30.2 0.8 45.2 3.7 1.3 0.3 1.3 0.3 2.6 0.5 8.9 1.8 17.3 4 23.7 10.9 5.2 8.5 4.8 16.9 4.8 26.5q0 3.7 0 7.3c0 8-0.2 15.9-1.1 23.9-1.4 14.1-1.8 28-1.7 42.1q0 3.5 0 7.1 0 9.4 0 18.8 0.1 5.9 0.1 11.7c0 33.4 0.2 66.9 1 100.3q0.4 15.9 0.4 31.8 0 1.8 0 3.8c0 1.7 0 1.7 0 3.4q0 1.5 0 3.1c-0.1 2.5-0.1 2.5-1.2 4.7q1.3-0.2 2.8-0.5c4.7-0.7 9.4-0.9 14.2-1q1.4 0 2.9 0 4.5-0.1 9-0.2 3.1-0.1 6.2-0.2 7.6-0.2 15.1-0.3 0.1-26 0.1-51.9 0-2 0-4c0-52.9-0.3-105.8-0.8-158.7-0.5-56.4-0.5-56.4-0.5-84q0-3.5 0-7.1c-0.1-11.9 0-23.8 0.5-35.7q0.1-1.5 0.1-3.1c0.5-11.6 2.4-21.9 9.1-31.5 4.5-3.4 8.6-2.8 14-2.8 1.6 0 1.6 0 3.3 0q3.5 0.1 6.9 0.1 5.2 0.1 10.5 0c12.8 0.1 25.2 0.7 37.9 2.8q1.4 0.2 2.9 0.4c27.8 4.6 27.8 4.6 34.8 12.1 4 7.6 3.6 16.2 3.5 24.6q0 1.7 0 3.6 0 5.9 0 11.9 0 4.2 0 8.5 0 11.2-0.1 22.4 0 6.4 0 12.9-0.1 27.1-0.2 54.2-0.1 11.9-0.1 23.8-0.1 21.1-0.2 42.3-0.1 20.4-0.2 40.9 0 1.3 0 2.6 0 6.4 0 12.8-0.2 52.6-0.4 105.1 0.9-0.2 1.9-0.5c2.6-0.6 4.7-0.7 7.3-0.7q1.4 0 2.8 0c1.5 0 1.5 0 3 0q1.5 0 3 0 4.8 0 9.7 0 3.2 0 6.5 0 8 0.1 16 0.1 0-1.1 0-2.2-0.2-64.4-0.4-128.8-0.1-7.9-0.1-15.7 0-1.5 0-3.1-0.1-24.9-0.2-49.7 0-25.7-0.1-51.4-0.1-14.4-0.1-28.8-0.1-33.2-0.2-66.4 0-6.9-0.1-13.7 0-15.7 0-31.5 0-6.7 0-13.5c-0.1-17.1-0.1-34.2 0.4-51.3q0-3.4 0.1-6.8c0.7-23.6 0.7-23.6 5.7-30.6 4.3-3.7 9-6.1 14.7-6.1q1.4 0 2.9 0 1.5 0 3.1 0c1.6-0.1 1.6-0.1 3.3-0.1q5.2 0 10.5 0 1.7 0 3.6 0c62 0.2 62 0.2 75.7 11.4 12.4 15.7 6.7 44.9 5.9 63.4-1.4 31.8-1.8 63.5-1.8 95.4q-0.1 11-0.1 22-0.1 18.5-0.1 37.1-0.1 18.6-0.1 37.2 0 1.2-0.1 2.4 0 4.5 0 9.1-0.4 111.4-0.3 222.8c17 0 33.9 0 51.4 0q-0.6-1.1-1.2-2.2-0.1-3.8-0.1-7.6c0-1.2 0-1.2 0-2.4q0-4 0-7.9 0-2.9 0-5.8 0-7.9 0-15.9 0-8.5 0-17.1 0-14.8 0.1-29.7 0-21.5 0-43 0-34.9 0-69.9 0-2.1 0-4.2 0-17 0-33.9 0.1-14.8 0.1-29.6 0-2 0-4.2 0-34.7 0-69.5 0-21.4 0-42.8 0-14.8 0-29.5 0-8.5 0.1-16.9c0-21.9-0.1-43.7-1.2-65.6-0.3-7.2-0.3-14.5-0.3-21.8q0-1.2 0-2.5c0-13.7 0.5-27.4 1.2-41.2q0.1-1.3 0.1-2.6c1.7-32.4 1.7-32.4 9-39.4 5.8-3.4 11.4-4.1 18-4.1z"/>
		<path class="s1" d="m766.8 291.6q1.2 0 2.5 0 2.7 0 5.3 0.1 4 0 8 0c15.7 0 33.9 0.2 48.6 6.1 3.8 5 3.6 12.2 3.6 18.3 0 2 0 2 0 4.1 0 2.3 0 2.3 0 4.5q0 2.4 0 4.8 0 6.5 0 13 0 7 0 13.9 0 11.7 0 23.5 0 13.2 0 26.5 0 11.6 0 23.1 0 6.8 0 13.7c0 23.1-0.2 46.3-0.6 69.4-0.7 38.1-0.9 76.1-1 114.2q-0.1 13.3-0.1 26.7-0.1 23.8-0.2 47.6 0 23-0.1 46 0 1.5 0 2.9-0.1 7.3-0.1 14.5-0.2 59.1-0.3 118.2c-28.3 0-56.6 0-85.7 0q1.1-2.2 2.3-4.5c0.4-2.9 0.4-2.9 0.5-6 0-1.8 0-1.8 0.1-3.7q0-2 0.1-4 0.1-2.1 0.1-4.3c0.5-17.5 0.5-35.1 0.5-52.7q0-7.5 0-15.1 0-14.8 0-29.6 0-12 0-24 0-1.7 0-3.4 0-3.5 0-7 0-32.6 0-65.2 0-27.9 0-55.9 0-32.5 0-65 0-3.5 0-7 0-1.7 0-3.4 0-12 0-24 0-14.6 0-29.2 0-7.4 0-14.9 0-6.8 0-13.6 0-2.5 0-4.9c0-9-0.3-17.8-1-26.7-0.4-4.6-0.5-9.2-0.5-13.9q0-1.4 0-2.9 0-4.7 0-9.4 0-1.6 0-3.3-0.1-8.6-0.1-17.2 0-8.8 0-17.6-0.1-6.9-0.1-13.8 0-3.2 0-6.4c-0.2-27.8-0.2-27.8 3.8-38.6 4.6-3.7 8.7-4 14.4-3.9z"/>
		<path class="s2" d="m658.8 406.3c2.6 7.6 2.5 14.8 2.5 22.8q0 2-0.1 4.1-0.1 13.2-0.4 26.4c-1 41.3-1 82.6-1 123.9q0 15.7 0 31.3 0 27.8 0 55.6 0.1 26.9 0.1 53.8c0 1.7 0 1.7 0 3.4q0 8.4 0 16.8 0 69.2 0 138.3c-28.2 0-56.5 0-85.6 0 1.1-2.2 1.1-2.2 2.3-4.5 0.3-2.4 0.3-2.4 0.2-4.9q0.1-1.5 0.1-3 0-1.6-0.1-3.2c0-1.7 0-1.7 0.1-3.4q0-5.8-0.1-11.5 0-4.1 0-8.2 0-10 0-20 0-11.8 0-23.5 0-21 0-42 0-20.2 0-40.5 0-1.2 0-2.5 0-1.2 0-2.5 0-23.1 0-46.3 0-8.1-0.1-16.2c0-31.3-0.1-62.6-1-93.8q0-1.4 0-2.9-0.1-1.3-0.1-2.7c-0.3-12.5-0.3-25-0.3-37.5q0-3.7 0-7.5 0-7.7 0-15.4 0-9.8 0-19.6 0-7.7 0-15.4 0-3.6 0-7.2c-0.1-36.6-0.1-36.6 5.8-46.8 10.5-10.4 66.3-4 77.7 4.6z"/>
		<path class="s3" d="m740.9 100.7q1.7 0 3.6 0c4.2 0.7 6.1 2 9.1 5.1 5.4 9.3 3.4 24.4 1 34.4-1.6 5.7-3.4 11.4-5.3 17-1.8 5.6-3.5 11.2-5.2 16.9q-0.5 1.6-1 3.3-1 3.3-2 6.7-2.4 8-4.8 16-0.4 1.4-0.8 2.9-1.3 3.9-2.5 7.9c-0.4 1.4-0.4 1.4-0.8 2.9q-0.5 1.3-0.9 2.7-0.4 1.2-0.8 2.5c-1.1 2.5-2.2 3.9-4.3 5.6-3.8 1.4-5.4 1.9-9.2 1.2-3.6-2.4-6.6-5.3-9.6-8.4q-3.2-3.4-6.6-6.7-6.8-6.7-13.5-13.5c-3.5 2.7-6.6 5.4-9.4 8.8-3 3.5-6.1 6.8-9.4 10.1-5.2 5.1-10 10.5-14.7 16-12.4 14.7-12.4 14.7-19.1 21.2-2.1 2.1-4 4.2-5.9 6.5-11.2 12.8-23.1 24.9-35.1 37q-1.5 1.4-3 3c-5.1 5-10.2 9.9-15.6 14.5-2.4 2.2-4.7 4.4-6.9 6.7-4.6 4.7-9.6 8.9-14.8 13-3 2.5-5.9 5.1-8.8 7.7-13.8 12.6-28.7 23.9-43.5 35.2q-4.8 3.5-9.3 7.3c-8.2 6.7-16.7 12.4-25.7 18-6.4 3.9-12.3 8.2-18.2 12.8-6.8 5.4-13.8 10.1-21.4 14.4-6.4 3.6-12.5 7.5-18.7 11.6-51.3 33.7-107.4 58.1-167 72.7q-4.5 1.1-9.1 2.3c-10.9 2.9-21.9 5-33.1 6.8q-1.3 0.3-2.7 0.5-19.3 3.2-38.8 5.6-2.1 0.3-4.4 0.6c-15 1.8-30 2.7-45.2 2.8q-2 0-4 0-1.8 0-3.8 0.1-1.6 0-3.3 0c-2.9-0.4-2.9-0.4-5-2-1.3-1.9-1.3-1.9-1.9-4.4 0.9-4.8 2.8-7.9 6.3-11.2 6.9-2.6 14.6-2.7 21.9-3.1 59.6-4.5 121.8-19.8 175.8-45.6q5.6-2.6 11.1-5.1c30.7-14.3 59.4-31.8 86.8-51.7 4.8-3.5 9.9-6.7 15-9.9 8.7-5.3 16.9-11.1 25.1-17.1q3.1-2.3 6.2-4.5 1.5-1.1 3-2.2 3.8-2.7 7.7-5.4c8.9-6 17.3-12.2 25.4-19.3 3-2.5 6-5 9.1-7.4 5.1-4.1 10-8.2 15-12.5q6-5.1 12.2-10c4.6-3.8 8.8-7.7 12.9-12 2.8-2.7 5.6-5.2 8.6-7.7 11.5-10.2 22.5-20.9 33.4-31.8q3.5-3.5 7.1-7 2.3-2.3 4.6-4.6 1-1 2.1-2.1c4.1-4.1 7.7-8.4 11-13.2 1.6-2 3.2-3.4 5.2-5 3.3-2.5 3.3-2.5 5.3-5.8 3-4.4 6.4-7.7 10.2-11.4 3-3 5.8-6.2 8.5-9.4 2.4-2.7 4.8-5.4 7.2-8.1q4.7-5.1 9.2-10.4c2.8-3.2 5.6-6.1 8.6-9.1 2.9-2.9 5.8-5.7 8.6-8.8q0.8-0.9 1.7-1.8c1.3-1.8 1.3-1.8 0.9-4.2-1.2-2.8-2.5-3.9-4.9-5.8-17.4-14.7-17.4-14.7-20.1-23.9q0-1.7 0-3.4c10.3-6 20.7-9 32.1-12.1 5.2-1.5 10.3-3.2 15.3-5.1 4.4-1.6 8.8-2.9 13.2-4.3q5.3-1.6 10.6-3.3 1.6-0.5 3.3-1.1 3.2-1 6.5-2c21.2-6.9 21.2-6.9 29.7-6.9z"/>
		<path class="s2" d="m422.4 519.2c1.4 0 1.4 0 2.8 0q2.9-0.1 5.8-0.1 4.3 0 8.7 0c9.3-0.1 18.4 0.2 27.6 1.8q1.1 0.2 2.3 0.4c12.7 2.5 12.7 2.5 16.7 8.1 2.4 7 1.5 14.7 1.3 22q-0.1 2.6-0.1 5.2-0.1 6.8-0.3 13.6-0.2 9.3-0.4 18.7-0.1 5-0.2 9.9c-0.8 35.2-0.2 70.4 0 105.5q0 9.5 0.1 18.9 0.1 17.8 0.2 35.6 0.1 20.3 0.2 40.6 0.2 41.7 0.4 83.3c-27.9 0-55.8 0-84.5 0 1.1-2.2 1.1-2.2 2.3-4.5 0.4-2.8 0.4-2.8 0.4-5.9q0.1-1.7 0.2-3.5 0-1.9 0.1-3.9 0-1.9 0.1-4c0.4-13 0.5-26.1 0.5-39.1q0-5.8 0-11.5 0-21.2-0.7-42.4-0.7-25.6-0.7-51.2 0-1.6 0-3.3 0-11.5 0.1-23 0-13.3 0-26.5c0-1.6 0-1.6 0-3.2 0.1-12.6-0.1-25.3-0.8-37.9-0.6-13.5-0.6-27-0.6-40.5q0-4.6 0-9.2c-0.2-46.2-0.2-46.2 5.9-52.5 4.3-1.5 8.2-1.4 12.6-1.4z"/>
		<path class="s2" d="m298.4 600.9q1.2 0.2 2.4 0.4c5.8 1.1 10.1 3 14.3 7.2 3.9 17.3 2.4 35.7 1.8 53.3-0.8 23.4-0.9 46.9-0.9 70.3q0.1 4.9 0.1 9.9c0 25.2 0.1 50.3 0.4 75.5 0 1.5 0 1.5 0 3 0.2 20.8 0.5 41.5 0.8 62.2-26.7 0-53.5 0-81 0q1.1-2.8 2.2-5.7c0.3-3.2 0.3-3.2 0.2-6.6q0-2 0-4.1-0.1-2.2-0.1-4.4-0.1-2.4-0.1-4.7-0.1-5.1-0.2-10.2-0.1-8.1-0.2-16.3-0.2-11.6-0.4-23.2-0.5-29.9-0.9-59.7c0-1.5 0-1.5-0.1-3-0.4-31.3-0.7-62.7-0.3-94q0.1-4.1 0.1-8.3 0.1-6.2 0.2-12.5 0-3.2 0.1-6.4c0.3-14.6 0.3-14.6 4-20.8 13.6-8.7 42.4-4.4 57.6-1.9z"/>
		<path class="s4" d="m172.3 202.4q1.7 0 3.5 0c21.2 0.5 42 6.7 58.2 21.1 1.1 0.9 1.1 0.9 2.2 1.9 11.6 10.5 19.8 26.8 20.9 42.5 0.1 10.7 0.1 10.7-1.4 13.9q0.9-0.6 1.9-1.2c17-9.2 37.6-10.7 56.2-5.7 13.5 4.5 22.5 10.4 29.1 23.1 5.5 11.4 5.3 23 1.8 35.2-1.9 4.6-2.6 6.3-6.8 9.1-4.2 0.5-6.1 0.5-9.6-1.8-1.8-2.8-1.8-2.8-1.7-6 1-3.6 1-3.6 2.2-6.7 2.5-8.5 2.9-19.9-1.2-27.8-5.9-8.7-12.3-13.4-22.6-15.5-12.2-1.6-22.7-1.3-32.8 6.3-6 5.1-10.9 10.7-15.5 17-3.3 3.8-6.4 5.7-11.2 6.5-3.8-0.6-6.3-1.7-9.1-4.4-2.6-3.8-2.1-7.7-1.3-12.1q1.1-3.3 2.3-6.5c4.7-13.3 3.2-26.6-2.4-39.5-3-6.1-7-11.5-11.3-16.9q-0.9-1.2-1.9-2.4c-10-11.4-26.7-16-41.2-17.3-2.8-0.1-5.5 0-8.3 0.3q-1.3 0.1-2.7 0.2c-14.4 2.1-26.8 10.6-37.3 20.4q-1.1 1-2.2 2c-10.4 10.6-17.4 27.1-17.6 41.9 0.4 23.4 10.7 42 25.6 59.3 8 9.5 8 9.5 7.9 15.4-1.1 2.5-1.1 2.5-4.5 4.7-2.7 0.1-2.7 0.1-5.7-0.3q-1.5-0.2-3-0.4c-2.7-0.4-2.7-0.4-6.2-1.5-15.6-1.4-15.6-1.4-29.7 4.6-3.8 3.7-6.6 7.8-9.1 12.5q-0.6 1-1.3 2c-1.8 4.8-1 10-0.8 15 0.2 6.5 0.2 6.5-1.7 9.3-1.9 1.1-1.9 1.1-4.8 1-3.1-1.1-4.3-1.8-6.2-4.4-3.5-8-2.8-14.1 0-22.1 5.5-13.5 15-23.2 28.3-29.3 6.3-2.1 13.1-1.5 19.6-1.2q-1.1-1.1-2.2-2.2c-17.7-18.5-26-39.8-25.5-65.4 0.9-21.8 12.9-40.1 28.1-55 14.1-12.2 32.5-19.8 51-19.6z"/>
		<path class="s4" d="m892.9 485.1q2.8-0.1 5.6-0.1 1.6-0.1 3.2-0.1c4.8 0.3 9.3 1.4 14 2.5q3.2 0.7 6.4 1.4 1.7 0.4 3.4 0.7c1.6 0.4 1.6 0.4 3.4 0.8q4.9 1.1 9.9 2.2 3.1 0.6 6.3 1.2c2.4 0.5 4.8 1.1 7.2 1.7 0.5 1.7 0.5 1.7 1.1 3.4q1.7 0 3.4 0c0.1 20.4 0 40.7-0.2 61q-0.1 6.1-0.1 12.1-0.1 11.4-0.2 22.7-0.1 13-0.2 25.9-0.2 26.6-0.4 53.2c-5.6-1-5.6-1-6.9-2.3q-0.1-3.3-0.1-6.5-0.1-2.2-0.1-4.3 0-2.4 0-4.8 0-2.5 0-4.9-0.1-6.8-0.1-13.6-0.1-7-0.1-14.1-0.1-13.3-0.2-26.7 0-15.2-0.1-30.5-0.2-31.3-0.4-62.6-2.2 0-4.4 0c-3.2 0-6.2 0-9.3-0.7-1.1-0.2-1.1-0.2-2.3-0.4-1.2-0.2-1.2-0.2-2.3-0.5-9.1-1.7-18.2-2.9-27.4-4.1q0.1 1 0.1 2.1c0.7 15.4 1.2 30.7 1.3 46.1q0.1 1.1 0.1 2.4 0 4.8 0.1 9.7c0.5 55.1 0.5 55.1 5.5 109.9 0.2 1.8 0.2 1.8 0.5 3.5q0.2 1.6 0.4 3.1c0 2.6 0 2.6-2.3 6-4.8-2-6.1-4.3-8.2-8.8-1.5-4.1-1.9-8.1-2.3-12.5q-0.1-1.2-0.2-2.4-0.4-4.1-0.7-8.3-0.1-1.6-0.3-3.2c-0.9-11.8-1.3-23.6-1.7-35.3q-0.1-3.3-0.2-6.6-0.3-6.8-0.5-13.7-0.2-6.9-0.5-13.8c-0.8-23.5-1.5-47-1.5-70.5q0-1.4 0-2.8 0-3.8 0-7.6 0-2.1 0-4.3c0.1-3.3 0.1-3.3 1.3-5.6z"/>
		<path class="s4" d="m114.6 657.5c1.3 0 1.3 0 2.7 0q2.8 0 5.6 0 4.3 0 8.6 0 2.8 0 5.5 0 1.3 0 2.6 0c3.6 0 6.4 0.2 9.9 1.3 1.3 4 1.4 7.7 1.6 11.9q0 1.2 0.1 2.6 0.1 4.2 0.3 8.5 0.1 3 0.2 5.9 0.2 6.3 0.5 12.5 0.3 8 0.6 15.9 0.2 6.2 0.4 12.4 0.1 2.9 0.2 5.8c0.5 11 0.7 22 0.6 33q1.7-0.5 3.5-1.1c4.1-0.3 8.3-0.2 12.5-0.2 1.7 0 1.7 0 3.4-0.1 1.7 0 1.7 0 3.4 0q1.5 0 3 0c3 0.3 4.8 1.1 7.4 2.6q-0.6 2.8-1.2 5.7c-8.3 2-16.3 2.8-24.9 2.9q-1.7 0-3.5 0.1c-8.1 0.1-8.1 0.1-11.3-2-6-6.8-6.5-15-7.1-23.6q-0.1-1.7-0.3-3.4c-0.9-12.6-1.5-25.2-2.1-37.8q-0.1-1.5-0.2-3.1c-1-21.7-1-21.7-0.8-32.5q-1.1 0.1-2.3 0.2c-24.7 2.3-24.7 2.3-35.7 2.4-2.1 0.1-2.1 0.1-4.2 0.1-3.8-0.5-5.4-1.1-8.1-3.8-0.6-4-0.6-4 0-8 7.7-8.2 18.6-8.2 29.1-8.2z"/>
		<path class="s5" d="m925.8 807.3c2.5 3.5 2.5 3.5 2.3 7.7-1 3.8-1 3.8-2.1 6-2.6 0.5-2.6 0.5-5.8 0.8q-1.6 0.1-3.2 0.2c-1.2 0.1-1.2 0.1-2.4 0.2-2-3.9-1.7-8.3-1.2-12.6 2-2.3 2-2.3 4.6-3.4q1.1-0.6 2.2-1.1c2.4 0 2.4 0 5.6 2.2z"/>
		<path class="s6" d="m674.8 532c3.4 3.4 3.4 3.4 3.8 6.5q0 1.8 0 3.7 0 2.1 0 4.2 0 2.3-0.1 4.6 0 2.3 0 4.7 0 6.1-0.1 12.2 0 6.3 0 12.6-0.1 12.3-0.2 24.6-0.6 0-1.1 0c-0.4 2.3-0.8 4.5-1.2 6.9q-0.6 0-1.1 0c0-26.4 0-52.8 0-80z"/>
		<path class="s4" d="m114.1 705.6c2.4 3.7 2.5 4.9 2.3 9.2-3.5 2-6 2.5-10 2.4q-1.4 0-2.8 0-1-0.1-2.1-0.1c-0.8-3.1-1.3-5.2-0.5-8.2 3.2-4.1 8.4-5.4 13.1-3.3z"/>
		<path class="s4" d="m170.6 724.4c4 0.7 4 0.7 6.3 3.2 1.3 3.6 1.2 5.3 0 8.9-1.2 1.1-1.2 1.1-3.8 1.3-1.5-0.1-1.5-0.1-3.1-0.1q-1.6 0-3.2 0-1.2 0-2.5-0.1c-1-3.9-1.3-6.2 0-10.1 2.3-2.4 2.3-2.4 6.3-3.1z"/>
		<path class="s7" d="m216.8 600.5q0.6 0 1.2 0c1 13 1.3 25.9 1.2 38.9q0 2.7 0 5.3 0 6.5-0.1 13-0.5 0-1.1 0c-0.4-3.8-0.8-7.6-1.2-11.5q-0.5 0-1.1 0c-0.2-30.5-0.2-30.5 1.1-45.7z"/>
		<path class="s8" d="m709 178.9q2.4 2.2 4.6 4.6 0 1.1 0 2.3 1.6-0.3 3.3-0.7c3.5-0.5 3.5-0.5 5.8 0.7q0 1.7 0 3.4c-2.6 1.7-4.2 2.3-7.3 2.2-4-1.4-6-3.6-8.7-6.8q0-1.7 0-3.4 1.2 0 2.3 0 0-1.1 0-2.3z"/>
		<path class="s9" d="m384.7 829c1.7 1.2 1.7 1.2 3.4 2.3 0.3 3.4 0.4 6.4 0.3 9.7q0 1.4 0 2.9c-0.1 6.5-0.4 13-1.4 19.4q-1.1 0.6-2.3 1.2c0-11.7 0-23.4 0-35.5z"/>
		<path class="s10" d="m925.8 807.3c2.5 3.5 2.5 3.5 2.3 7.7-1 3.8-1 3.8-2.1 6q-2.3-0.5-4.6-1.1 0.9-0.6 1.7-1.3c2.4-3 2-5.3 1.8-9-2.7-0.9-4.3-1.2-7.1-0.6-2.6 2.2-2.5 3.2-2.9 6.5q-0.2 2.2-0.3 4.4-0.6 0-1.2 0c-0.2-3.5-0.4-6.8 0-10.3 2-2.3 2-2.3 4.6-3.4q1.1-0.6 2.2-1.1c2.4 0 2.4 0 5.6 2.2z"/>
		<path class="s11" d="m405.3 712.5c3.4 3.4 3.4 3.4 3.6 6.2q-0.2 1.6-0.4 3.3-0.1 1.8-0.3 3.6-0.2 1.8-0.4 3.7-0.2 1.8-0.4 3.7-0.5 4.6-1 9.2-0.6 0-1.1 0c0-9.8 0-19.6 0-29.7z"/>
		<path class="s12" d="m891.7 482.8c3.4 0.4 6.8 0.8 10.3 1.2-4.6 2.3-4.6 2.3-9.1 1.1-0.4 8.7-0.8 17.4-1.2 26.3q-0.5 0-1.1 0-0.1-6.5-0.1-13 0-1.8 0-3.7 0-1.8 0-3.6 0-1.6 0-3.3c0.1-2.7 0.1-2.7 1.2-5z"/>
		<path class="s13" d="m172.3 725.1q1.1 0 2.3 0c2.4 3.1 3.5 4.8 3.2 8.8-0.9 2.6-0.9 2.6-3.2 3.7 0-2.6 0-5.2 0-8q-1.1 0-2.3 0 0-2.2 0-4.5z"/>
		<path class="s14" d="m916.9 885c2 0.2 2 0.2 4.5 1.2 2.1 2.5 2.1 2.5 3.5 5.7-0.4 3.2-0.4 3.2-1.2 5.7q-1.1 0-2.3 0 0.1-1.5 0.2-3.1c-0.2-3.6-0.5-5.4-2.5-8.3q-1.1-0.6-2.2-1.2z"/>
		<path class="s15" d="m91.2 661.1q1.2 0.6 2.3 1.1-1.4 1.5-2.9 3.1c-2.6 3-2.6 3-2.6 7.1q0.5 1.2 0.9 2.4-1.6-0.6-3.4-1.1c-0.3-3.8-0.3-3.8 0-8 2.9-2.8 2.9-2.8 5.7-4.6z"/>
		<path class="s16" d="m718.2 185.8q2.2 0 4.5 0 0 1.7 0 3.4c-2.7 1.6-3.9 2.4-7.1 1.9q-1-0.4-2-0.8 0-1.1 0-2.2c2.8 0.5 2.8 0.5 5.7 1.1q-0.6-1.7-1.1-3.4z"/>
		<path class="s17" d="m712.5 183.5q0.5 1.1 1.1 2.3c2.3-0.4 4.5-0.8 6.8-1.2q-0.5 2.3-1.1 4.6-2.8-0.6-5.7-1.1-0.6 1.1-1.1 2.2c-1.2-3.4-1.2-3.4 0-6.8z"/>
		<path class="s18" d="m335.6 872.5q0.6 0 1.1 0c0 2.2 0 4.5 0 6.8q2.3 1.1 4.6 2.3 0 0.6 0 1.1c-2.2 0-4.5 0-6.8 0 0.3-3.3 0.7-6.7 1.1-10.2z"/>
		<path class="s19" d="m221.4 516q1.1 1.1 2.3 2.3c-6.9 1.1-6.9 1.1-9.1 1.1q-1.2-1.1-2.3-2.3c3.1-1.6 5.6-1.3 9.1-1.1z"/>
		<path class="s20" d="m641.7 152.6c3.8 1.6 5.6 3.4 7.9 6.9-3.4 0-3.4 0-5.9-2.1-2-2.5-2-2.5-2-4.8z"/>
	</g>
</svg>